<svg xmlns="http://www.w3.org/2000/svg" xmlns:xlink="http://www.w3.org/1999/xlink" viewBox="0 0 159 160"><defs><style>.cls-1{fill:url(#linear-gradient);}.cls-2{fill:url(#linear-gradient-2);}.cls-3{fill:url(#linear-gradient-3);}.cls-4{fill:url(#linear-gradient-4);}.cls-5{fill:url(#linear-gradient-5);}.cls-6{fill:none;stroke-miterlimit:10;stroke-width:0.75px;stroke:url(#linear-gradient-6);}</style><linearGradient id="linear-gradient" x1="24.79" y1="71.22" x2="120.44" y2="91.42" gradientUnits="userSpaceOnUse"><stop offset="0" stop-color="#efcf47"/><stop offset="0" stop-color="#efcf47"/><stop offset="0.17" stop-color="#fbc35a"/><stop offset="0.28" stop-color="#ffbf61"/><stop offset="0.58" stop-color="#e96498"/><stop offset="1" stop-color="#f0f"/></linearGradient><linearGradient id="linear-gradient-2" x1="46.2" y1="51.87" x2="43.38" y2="51.92" gradientUnits="userSpaceOnUse"><stop offset="0" stop-color="#efcf47"/><stop offset="0.06" stop-color="#efcb4b"/><stop offset="0.42" stop-color="#edb85c"/><stop offset="0.68" stop-color="#edb162"/></linearGradient><linearGradient id="linear-gradient-3" x1="116.87" y1="108.62" x2="119.7" y2="108.62" gradientUnits="userSpaceOnUse"><stop offset="0" stop-color="#f0f"/><stop offset="1" stop-color="#e96498"/></linearGradient><linearGradient id="linear-gradient-4" x1="118.99" y1="114.74" x2="121.82" y2="114.74" xlink:href="#linear-gradient-3"/><linearGradient id="linear-gradient-5" x1="46.73" y1="57.77" x2="49.55" y2="57.77" gradientUnits="userSpaceOnUse"><stop offset="0" stop-color="#e8ac5d"/><stop offset="1" stop-color="#efcf47"/></linearGradient><linearGradient id="linear-gradient-6" x1="21.64" y1="80.49" x2="143.85" y2="80.49" gradientUnits="userSpaceOnUse"><stop offset="0" stop-color="#f0f"/><stop offset="1" stop-color="#a56daa"/></linearGradient></defs><g id="Layer_12" data-name="Layer 12"><path class="cls-1" d="M117.34,114.72v0a1.4,1.4,0,0,1-1.38,1.41H53.15c-5,0-8-5.83-5.52-10.45L73.08,59.19H52.82a1.38,1.38,0,0,1-1.34-1.42v0a1.38,1.38,0,0,1,1.34-1.42h5.07a1.38,1.38,0,0,0,1.34-1.41v0a1.38,1.38,0,0,0-1.34-1.41H51A1.38,1.38,0,0,1,49.69,52V52A1.38,1.38,0,0,1,51,50.57H61a1.38,1.38,0,0,0,1.34-1.41v0A1.38,1.38,0,0,0,61,47.7H53.71a1.38,1.38,0,0,1-1.34-1.41v0a1.38,1.38,0,0,1,1.34-1.41H63.92a1.36,1.36,0,0,1,.29,0l20.42,0c5,0,8,5.85,5.52,10.47L64.69,101.79h38.25a4.24,4.24,0,0,1,.51,0h5.14a1.46,1.46,0,0,1,1.61,1.41v0a1.4,1.4,0,0,1-1.38,1.41h-7.37a1.4,1.4,0,0,0-1.38,1.41v.05a1.4,1.4,0,0,0,1.38,1.41h12.67A1.4,1.4,0,0,1,115.5,109v0a1.4,1.4,0,0,1-1.38,1.41H98.92a1.39,1.39,0,0,0-1.38,1.41v0a1.39,1.39,0,0,0,1.38,1.41h17A1.4,1.4,0,0,1,117.34,114.72Z"/><circle class="cls-2" cx="45.08" cy="51.89" r="1.41"/><circle class="cls-3" cx="118.29" cy="108.62" r="1.41"/><circle class="cls-4" cx="120.4" cy="114.74" r="1.41"/><circle class="cls-5" cx="48.14" cy="57.77" r="1.41"/><circle class="cls-6" cx="82.74" cy="80.49" r="60.73"/></g></svg>