<svg id="Layer_3" data-name="Layer 3" xmlns="http://www.w3.org/2000/svg" xmlns:xlink="http://www.w3.org/1999/xlink" viewBox="0 0 1886.96 1632.84"><defs><style>.cls-1,.cls-5,.cls-6{fill:#fff;}.cls-1{opacity:0.5;}.cls-2{fill:url(#linear-gradient);}.cls-3{fill:#1d1d1d;}.cls-4{fill:url(#linear-gradient-2);}.cls-5{font-size:117.55px;font-family:Ebrima;}.cls-6{font-size:105.79px;font-family:Ebrima-Bold, Ebrima;font-weight:700;}.cls-7{fill:url(#linear-gradient-3);}.cls-8{fill:url(#linear-gradient-4);}.cls-9{fill:url(#linear-gradient-5);}</style><linearGradient id="linear-gradient" x1="-4721.492" y1="5739.177" x2="-4465.846" y2="6181.969" gradientTransform="translate(-5273.314 -3203.886) rotate(-90)" gradientUnits="userSpaceOnUse"><stop offset="0" stop-color="#ecbd63"/><stop offset="0.989" stop-color="#e86397"/></linearGradient><linearGradient id="linear-gradient-2" x1="-3844.934" y1="6404.596" x2="-3592.914" y2="6841.108" xlink:href="#linear-gradient"/><linearGradient id="linear-gradient-3" x1="-4705.326" y1="6426.316" x2="-4465.846" y2="6841.108" xlink:href="#linear-gradient"/><linearGradient id="linear-gradient-4" x1="-3848.554" y1="5739.187" x2="-3592.914" y2="6181.969" xlink:href="#linear-gradient"/><linearGradient id="linear-gradient-5" x1="-3833.796" y1="7139.736" x2="-3592.914" y2="7556.956" xlink:href="#linear-gradient"/></defs><title>skill-design</title><circle class="cls-1" cx="255.986" cy="1128.918" r="255.986"/><path class="cls-2" d="M678.777,1375.079V1119.092c140.43,0,255.987,115.557,255.987,255.987s-115.557,255.986-255.987,255.986c-139.872,0-255.175-114.639-255.982-254.508Z" transform="translate(-422.791 -246.16)"/><circle class="cls-3" cx="255.986" cy="1128.918" r="190.791"/><circle class="cls-1" cx="915.125" cy="255.987" r="255.987"/><path class="cls-4" d="M1337.916,502.147V246.16c140.43,0,255.986,115.557,255.986,255.987s-115.556,255.986-255.986,255.986a256.087,256.087,0,0,1-184.192-78.215Z" transform="translate(-422.791 -246.16)"/><circle class="cls-3" cx="915.125" cy="255.987" r="190.791"/><text class="cls-5" transform="translate(868.893 620.635)">AI</text><text class="cls-6" transform="translate(814.301 292.188)">65%</text><circle class="cls-1" cx="915.125" cy="1128.918" r="255.987"/><path class="cls-7" d="M1337.916,1375.079V1119.092c140.43,0,255.986,115.557,255.986,255.987s-115.556,255.986-255.986,255.986a256.011,256.011,0,0,1-130.838-35.962Z" transform="translate(-422.791 -246.16)"/><circle class="cls-3" cx="915.125" cy="1128.918" r="190.791"/><text class="cls-5" transform="translate(851.782 1514.842)">AE</text><text class="cls-6" transform="translate(814.185 1162.627)">60%</text><circle class="cls-1" cx="255.987" cy="255.987" r="255.987"/><path class="cls-8" d="M678.777,502.147V246.16c140.43,0,255.987,115.557,255.987,255.987S819.207,758.133,678.777,758.133,422.791,642.577,422.791,502.147a255.985,255.985,0,0,1,24.566-109.424Z" transform="translate(-422.791 -246.16)"/><circle class="cls-3" cx="255.987" cy="255.987" r="190.791"/><text class="cls-5" transform="translate(98.4 620.635)">Figma</text><text class="cls-6" transform="translate(159.815 299.074)">80%</text><text class="cls-5" transform="translate(182.109 1514.842)">XD</text><text class="cls-6" transform="translate(162.296 1162.627)">75%</text><circle class="cls-1" cx="1630.973" cy="255.987" r="255.986"/><path class="cls-9" d="M2053.764,502.147V246.16c140.43,0,255.986,115.557,255.986,255.987s-115.556,255.986-255.986,255.986a256.019,256.019,0,0,1-135.837-39.012Z" transform="translate(-422.791 -246.16)"/><circle class="cls-3" cx="1630.973" cy="255.987" r="190.791"/><text class="cls-5" transform="translate(1568.385 620.635)">PS</text><text class="cls-6" transform="translate(1539.642 298.377)">60%</text></svg>