<svg id="Layer_1" data-name="Layer 1" xmlns="http://www.w3.org/2000/svg" xmlns:xlink="http://www.w3.org/1999/xlink" viewBox="0 0 2311 1652.1"><defs><style>.cls-1,.cls-4,.cls-8{fill:#fff;}.cls-1{opacity:0.5;}.cls-2{fill:url(#linear-gradient);}.cls-3{fill:#1d1d1d;}.cls-4{font-size:105.792px;font-family:Ebrima-Bold, Ebrima;font-weight:700;}.cls-5{fill:url(#linear-gradient-2);}.cls-6{fill:url(#linear-gradient-3);}.cls-7{fill:url(#linear-gradient-4);}.cls-8{font-size:117.546px;font-family:Ebrima;}.cls-9{fill:url(#linear-gradient-5);}.cls-10{fill:url(#linear-gradient-6);}</style><linearGradient id="linear-gradient" x1="-1085.304" y1="2913.397" x2="-829.664" y2="3356.179" gradientTransform="translate(-2521.314 -451.886) rotate(-90)" gradientUnits="userSpaceOnUse"><stop offset="0" stop-color="#ecbd63"/><stop offset="0.989" stop-color="#e86397"/></linearGradient><linearGradient id="linear-gradient-2" x1="-1085.31" y1="3616.001" x2="-829.664" y2="4058.793" xlink:href="#linear-gradient"/><linearGradient id="linear-gradient-3" x1="-2038.384" y1="2916.051" x2="-1782.602" y2="3359.079" xlink:href="#linear-gradient"/><linearGradient id="linear-gradient-4" x1="-2038.393" y1="3618.65" x2="-1782.602" y2="4061.693" xlink:href="#linear-gradient"/><linearGradient id="linear-gradient-5" x1="-2038.393" y1="4372.577" x2="-1782.602" y2="4815.621" xlink:href="#linear-gradient"/><linearGradient id="linear-gradient-6" x1="-1085.452" y1="4378.818" x2="-829.664" y2="4821.857" xlink:href="#linear-gradient"/></defs><title>skill-development</title><circle class="cls-1" cx="255.987" cy="255.987" r="255.987"/><path class="cls-2" d="M604.987,490.9V234.911c140.43,0,255.986,115.556,255.986,255.986S745.417,746.884,604.987,746.884,349,631.327,349,490.9a256,256,0,0,1,19.948-99.07Z" transform="translate(-349 -234.911)"/><circle class="cls-3" cx="255.987" cy="255.987" r="190.791"/><text class="cls-4" transform="translate(164.624 283.537)">80%</text><circle class="cls-1" cx="958.601" cy="255.987" r="255.987"/><path class="cls-5" d="M1307.6,490.9V234.911c140.43,0,255.986,115.556,255.986,255.986S1448.031,746.884,1307.6,746.884c-139.872,0-255.175-114.64-255.983-254.509Z" transform="translate(-349 -234.911)"/><circle class="cls-3" cx="958.601" cy="255.987" r="190.791"/><circle class="cls-1" cx="258.887" cy="1208.924" r="255.987"/><path class="cls-6" d="M607.887,1443.835V1187.848c140.43,0,255.986,115.557,255.986,255.987s-115.556,255.987-255.986,255.987c-118.871,0-222.858-82.8-249.483-198.65Z" transform="translate(-349 -234.911)"/><circle class="cls-3" cx="258.887" cy="1208.924" r="190.791"/><text class="cls-4" transform="translate(851.041 291.503)">75%</text><text class="cls-4" transform="translate(159.09 1257.161)">70%</text><circle class="cls-1" cx="961.501" cy="1208.924" r="255.987"/><path class="cls-7" d="M1310.5,1443.835V1187.848c140.43,0,255.987,115.557,255.987,255.987s-115.557,255.987-255.987,255.987c-115.936,0-218.085-78.761-247.57-190.885Z" transform="translate(-349 -234.911)"/><circle class="cls-3" cx="961.501" cy="1208.924" r="190.791"/><text class="cls-4" transform="translate(877.451 1262.471)">70%</text><text class="cls-8" transform="translate(818.644 1614.563)">React</text><circle class="cls-1" cx="1715.429" cy="1208.924" r="255.987"/><path class="cls-9" d="M2064.429,1443.835V1187.848c140.43,0,255.986,115.557,255.986,255.987s-115.556,255.987-255.986,255.987c-115.936,0-218.085-78.761-247.57-190.885Z" transform="translate(-349 -234.911)"/><circle class="cls-3" cx="1715.429" cy="1208.924" r="190.791"/><text class="cls-4" transform="translate(1612.41 1262.471)">70%</text><circle class="cls-1" cx="1721.664" cy="255.987" r="255.987"/><path class="cls-10" d="M2070.664,490.9V234.911c140.431,0,255.987,115.556,255.987,255.986s-115.556,255.987-255.987,255.987c-117.06,0-219.92-80.3-248.332-193.857Z" transform="translate(-349 -234.911)"/><circle class="cls-3" cx="1721.664" cy="255.987" r="190.791"/><text class="cls-4" x="-349" y="-234.911"><tspan x="1633.019" y="285.597">70%</tspan></text><text class="cls-8" transform="translate(93.874 668.476)">HTML</text><text class="cls-8" transform="translate(727.746 668.476)">CSS/SCS</text><text class="cls-8" transform="translate(1456.09 661.376)">Bootstrap</text><text class="cls-8" transform="translate(212.543 1614.563)">JS</text><text class="cls-8" transform="translate(1373.003 1614.563)">Framer Motion</text></svg>