<svg id="Layer_1" data-name="Layer 1" xmlns="http://www.w3.org/2000/svg" xmlns:xlink="http://www.w3.org/1999/xlink" viewBox="0 0 66 82.5"><defs><style>.cls-1{fill:url(#linear-gradient);}.cls-2{fill:url(#linear-gradient-2);}</style><linearGradient id="linear-gradient" x1="18.29" y1="72.93" x2="46.85" y2="16.88" gradientUnits="userSpaceOnUse"><stop offset="0" stop-color="#efcf48"/><stop offset="1" stop-color="#e96498"/></linearGradient><linearGradient id="linear-gradient-2" x1="26.57" y1="23.56" x2="38.25" y2="0.64" xlink:href="#linear-gradient"/></defs><path class="cls-1" d="M64.25,59H61.09V24.6a.75.75,0,0,0-.75-.75H52.53a.76.76,0,0,0-.75.75V59H45.47V16.79a.75.75,0,0,0-.75-.75H36.91a.74.74,0,0,0-.75.75V59H29.84V28.51a.74.74,0,0,0-.75-.75H21.28a.75.75,0,0,0-.75.75V59H14.22V16.82a.75.75,0,0,0-.75-.75H5.66a.74.74,0,0,0-.75.75V59H1.75a.75.75,0,0,0-.75.75v3.9a.75.75,0,0,0,.75.75h62.5a.75.75,0,0,0,.75-.75v-3.9A.75.75,0,0,0,64.25,59Zm-11-33.66h6.31V59H53.28ZM37.66,17.54H44V59H37.66ZM22,29.26h6.31V59H22ZM6.41,17.57h6.31V59H6.41ZM63.5,62.91H2.5v-2.4h61Z"/><path class="cls-2" d="M8.89,2.26A2.53,2.53,0,1,0,10.14,7a.36.36,0,0,0,.07.1L22.67,19a.57.57,0,0,0,.16.11,2.43,2.43,0,0,0-.17.89,2.53,2.53,0,1,0,5.06,0,2.39,2.39,0,0,0-.2-1,.4.4,0,0,0,.15-.1L39.55,7.1a.61.61,0,0,0,.07-.1,2.54,2.54,0,0,0,1.19.31,2.57,2.57,0,0,0,1.35-.39.47.47,0,0,0,.06.09L54,17.34l.09.05a2.58,2.58,0,0,0-.22,1,2.53,2.53,0,1,0,2.53-2.53,2.57,2.57,0,0,0-1.35.39s0-.06-.06-.08L43.21,5.88a.53.53,0,0,0-.1-.06,2.37,2.37,0,0,0,.23-1,2.53,2.53,0,0,0-5.06,0A2.44,2.44,0,0,0,38.6,6a.33.33,0,0,0-.1.06L26.62,17.89l0,0a2.53,2.53,0,0,0-2.88,0l0,0L11.24,6a.53.53,0,0,0-.1-.06,2.59,2.59,0,0,0,.28-1.14A2.53,2.53,0,0,0,8.89,2.26Z"/></svg>