<svg id="Layer_1" data-name="Layer 1" xmlns="http://www.w3.org/2000/svg" viewBox="0 0 82.98 98.7"><defs><style>.cls-1{fill:#eed492;opacity:0.73;}.cls-2{fill:#8e6c64;}</style></defs><path id="egg" class="cls-1" d="M75.65,49.84c20,32.33-22.63,46.32-41.1,41.74C10.89,85.71,4,71.42,4.07,46.64S14.34,7.69,39.12,7.75,62.61,28.77,75.65,49.84Z"/><path class="cls-2" d="M80,74.4H76.51V36a.85.85,0,0,0-.84-.84H67a.86.86,0,0,0-.84.84V74.4h-7V27.32a.85.85,0,0,0-.84-.84H49.54a.83.83,0,0,0-.84.82V74.4H41.65v-34a.82.82,0,0,0-.81-.84H32.11a.84.84,0,0,0-.84.84v34h-7V27.35a.83.83,0,0,0-.83-.83H14.69a.82.82,0,0,0-.84.81V74.4H10.33a.83.83,0,0,0-.84.83h0v4.35a.84.84,0,0,0,.84.84H80a.85.85,0,0,0,.84-.84V75.23A.84.84,0,0,0,80,74.4ZM67.76,36.85h7V74.4h-7ZM50.38,28.16h7.07V74.4H50.38ZM32.91,41.23h7V74.4h-7Zm-17.39-13h7V74.4h-7ZM79.19,78.76h-68V76.08h68Z"/><path class="cls-2" d="M18.29,11.11a2.83,2.83,0,0,0,0,5.65,2.9,2.9,0,0,0,1.35-.36.44.44,0,0,0,.08.11l13.9,13.27a.59.59,0,0,0,.18.13,2.57,2.57,0,0,0-.19,1,2.82,2.82,0,1,0,5.64,0h0a2.73,2.73,0,0,0-.22-1.12.36.36,0,0,0,.16-.11L52.48,16.51a.44.44,0,0,0,.08-.11,2.74,2.74,0,0,0,2.83-.09.86.86,0,0,0,.07.1L68.6,27.93l.1.06a2.81,2.81,0,1,0,2.58-1.71h0a2.77,2.77,0,0,0-1.51.44.1.1,0,0,0-.07-.09L56.57,15.15l-.12-.07A2.48,2.48,0,0,0,56.71,14a2.82,2.82,0,1,0-5.29,1.32.3.3,0,0,0-.11.06L38.06,28.55h0a2.81,2.81,0,0,0-3.21,0h0L20.91,15.29l-.11-.07A3,3,0,0,0,21.11,14a2.83,2.83,0,0,0-2.81-2.84Z"/></svg>