<svg width="47" height="90" viewBox="0 0 47 90" fill="none" xmlns="http://www.w3.org/2000/svg">
<path d="M0.0110771 45.3451C0.0908139 46.4602 0.54193 47.5165 1.29238 48.3451L37.2923 88.3451C37.7314 88.8336 38.2624 89.2307 38.855 89.5139C39.4476 89.7972 40.0902 89.9609 40.746 89.9958C41.4019 90.0306 42.0582 89.936 42.6775 89.7172C43.2967 89.4984 43.8668 89.1598 44.3552 88.7206C44.8436 88.2815 45.2407 87.7504 45.5239 87.1577C45.807 86.5651 45.9706 85.9225 46.0054 85.2666C46.0402 84.6108 45.9455 83.9545 45.7266 83.3352C45.5077 82.716 45.169 82.146 44.7298 81.6576L11.7299 45.0013L44.7298 8.34518C45.169 7.85685 45.5077 7.28676 45.7266 6.66751C45.9455 6.04827 46.0402 5.39198 46.0054 4.73611C45.9706 4.08025 45.807 3.43768 45.5239 2.84506C45.2407 2.25244 44.8436 1.7214 44.3552 1.28226C43.8668 0.843117 43.2967 0.504471 42.6775 0.285675C42.0582 0.0668786 41.4019 -0.0278129 40.746 0.00704922C40.0902 0.0419113 39.4476 0.205649 38.855 0.488861C38.2624 0.772073 37.7314 1.16924 37.2923 1.65768L1.29238 41.6577C0.842446 42.155 0.497148 42.7377 0.277028 43.3712C0.0569081 44.0047 -0.0335361 44.676 0.0110771 45.3451Z" fill="black"/>
</svg>
