<svg id="Layer_1" data-name="Layer 1" xmlns="http://www.w3.org/2000/svg" xmlns:xlink="http://www.w3.org/1999/xlink" viewBox="0 0 66 82.5"><defs><style>.cls-1{fill:url(#linear-gradient);}.cls-2{fill:url(#linear-gradient-2);}.cls-3{fill:url(#linear-gradient-3);}.cls-4{fill:url(#linear-gradient-4);}.cls-5{fill:url(#linear-gradient-5);}.cls-6{fill:url(#linear-gradient-6);}.cls-7{fill:url(#linear-gradient-7);}.cls-8{fill:url(#linear-gradient-8);}.cls-9{fill:url(#linear-gradient-9);}.cls-10{fill:url(#linear-gradient-10);}</style><linearGradient id="linear-gradient" x1="14.99" y1="76.04" x2="49.66" y2="7.99" gradientUnits="userSpaceOnUse"><stop offset="0" stop-color="#efcf48"/><stop offset="1" stop-color="#e96498"/></linearGradient><linearGradient id="linear-gradient-2" x1="28.51" y1="46.17" x2="32.85" y2="37.65" xlink:href="#linear-gradient"/><linearGradient id="linear-gradient-3" x1="28.51" y1="26.17" x2="32.85" y2="17.65" xlink:href="#linear-gradient"/><linearGradient id="linear-gradient-4" x1="28.51" y1="65.17" x2="32.85" y2="56.65" xlink:href="#linear-gradient"/><linearGradient id="linear-gradient-5" x1="13.06" y1="26.47" x2="17.59" y2="17.56" xlink:href="#linear-gradient"/><linearGradient id="linear-gradient-6" x1="45.23" y1="28.14" x2="50.82" y2="17.16" xlink:href="#linear-gradient"/><linearGradient id="linear-gradient-7" x1="45.23" y1="48.14" x2="50.82" y2="37.16" xlink:href="#linear-gradient"/><linearGradient id="linear-gradient-8" x1="45.23" y1="68.14" x2="50.82" y2="57.16" xlink:href="#linear-gradient"/><linearGradient id="linear-gradient-9" x1="12.43" y1="47.7" x2="18.22" y2="36.33" xlink:href="#linear-gradient"/><linearGradient id="linear-gradient-10" x1="14.02" y1="68.51" x2="18.97" y2="58.78" xlink:href="#linear-gradient"/></defs><path class="cls-1" d="M57.32,12h-50a1,1,0,0,0-1,1V71a1,1,0,0,0,1,1h50a1,1,0,0,0,1-1V13A1,1,0,0,0,57.32,12Zm-1,58h-48V14h48Z"/><path class="cls-2" d="M32.32,45a1,1,0,0,0,.51.87,1.05,1.05,0,0,0,.49.13,1,1,0,0,0,.52-.15l5-3a1,1,0,0,0,0-1.71l-5-3a1,1,0,0,0-1,0,1,1,0,0,0-.51.87v2h-10v2h10Zm2-4.24L36.38,42l-2.06,1.23Z"/><path class="cls-3" d="M32.32,25a1,1,0,0,0,.51.87,1.05,1.05,0,0,0,.49.13,1,1,0,0,0,.52-.15l5-3a1,1,0,0,0,0-1.71l-5-3a1,1,0,0,0-1,0,1,1,0,0,0-.51.87v2h-10v2h10Zm2-4.24L36.38,22l-2.06,1.23Z"/><path class="cls-4" d="M32.32,64a1,1,0,0,0,.51.87,1.05,1.05,0,0,0,.49.13,1,1,0,0,0,.52-.15l5-3a1,1,0,0,0,0-1.71l-5-3a1,1,0,0,0-1,0,1,1,0,0,0-.51.87v2h-10v2h10Zm2-4.24L36.38,61l-2.06,1.23Z"/><path class="cls-5" d="M15.32,27a5,5,0,1,0-5-5A5,5,0,0,0,15.32,27Zm0-8a3,3,0,1,1-3,3A3,3,0,0,1,15.32,19Z"/><path class="cls-6" d="M44.76,23.74l-.51,3.12a1,1,0,0,0,.41,1,1,1,0,0,0,1.06.05l2.6-1.44,2.61,1.44a.94.94,0,0,0,.48.13,1,1,0,0,0,1-1.17l-.51-3.12L54,21.53a1,1,0,0,0-.57-1.68l-2.92-.45-1.32-2.81a1,1,0,0,0-.91-.57,1,1,0,0,0-.9.57L46.1,19.4l-2.93.45a1,1,0,0,0-.79.67,1,1,0,0,0,.23,1Zm2.17-2.44a1,1,0,0,0,.75-.57l.64-1.36L49,20.73a1,1,0,0,0,.76.57l1.53.23L50.11,22.7a1,1,0,0,0-.27.86l.26,1.59-1.29-.72a1,1,0,0,0-1,0l-1.29.72.26-1.59a1,1,0,0,0-.27-.86L45.4,21.53Z"/><path class="cls-7" d="M44.76,43.74l-.51,3.12a1,1,0,0,0,.41,1,1,1,0,0,0,1.06,0l2.6-1.44,2.61,1.44a.94.94,0,0,0,.48.13,1,1,0,0,0,1-1.16l-.51-3.12L54,41.53a1,1,0,0,0-.57-1.68l-2.92-.45-1.32-2.81a1,1,0,0,0-.91-.57,1,1,0,0,0-.9.57L46.1,39.4l-2.93.45a1,1,0,0,0-.79.67,1,1,0,0,0,.23,1Zm2.17-2.44a1,1,0,0,0,.75-.57l.64-1.36L49,40.73a1,1,0,0,0,.76.57l1.53.23L50.11,42.7a1,1,0,0,0-.27.86l.26,1.58-1.29-.71a1,1,0,0,0-1,0l-1.29.71.26-1.58a1,1,0,0,0-.27-.86L45.4,41.53Z"/><path class="cls-8" d="M44.76,63.74l-.51,3.12a1,1,0,0,0,.41,1,1,1,0,0,0,1.06,0l2.6-1.44,2.61,1.44a.94.94,0,0,0,.48.13,1,1,0,0,0,1-1.16l-.51-3.12L54,61.53a1,1,0,0,0-.57-1.68l-2.92-.45-1.32-2.81a1,1,0,0,0-.91-.57,1,1,0,0,0-.9.57L46.1,59.4l-2.93.45a1,1,0,0,0-.79.67,1,1,0,0,0,.23,1Zm2.17-2.44a1,1,0,0,0,.75-.57l.64-1.36L49,60.73a1,1,0,0,0,.76.57l1.53.23L50.11,62.7a1,1,0,0,0-.27.86l.26,1.58-1.29-.71a1,1,0,0,0-1,0l-1.29.71.26-1.58a1,1,0,0,0-.27-.86L45.4,61.53Z"/><path class="cls-9" d="M11.32,47h8a1,1,0,0,0,1-1V38a1,1,0,0,0-1-1h-8a1,1,0,0,0-1,1v8A1,1,0,0,0,11.32,47Zm1-8h6v6h-6Z"/><path class="cls-10" d="M16.22,57.57a1,1,0,0,0-1.79,0l-4,8A1,1,0,0,0,11.32,67h8a1,1,0,0,0,.9-1.45ZM12.94,65l2.38-4.77L17.71,65Z"/></svg>