<svg width="35" height="36" viewBox="0 0 35 36" fill="none" xmlns="http://www.w3.org/2000/svg">
<path d="M32.4583 0.94116H3.17491C2.84573 0.936588 2.51888 0.996904 2.21303 1.11866C1.90717 1.24042 1.62829 1.42124 1.39232 1.65079C1.15635 1.88034 0.967905 2.15413 0.837756 2.45651C0.707607 2.7589 0.638298 3.08396 0.633789 3.41313V33.0422C0.638298 33.3714 0.707607 33.6964 0.837756 33.9988C0.967905 34.3012 1.15635 34.575 1.39232 34.8046C1.62829 35.0341 1.90717 35.2149 2.21303 35.3367C2.51888 35.4584 2.84573 35.5188 3.17491 35.5142H32.4583C32.7874 35.5188 33.1143 35.4584 33.4201 35.3367C33.726 35.2149 34.0049 35.0341 34.2408 34.8046C34.4768 34.575 34.6653 34.3012 34.7954 33.9988C34.9256 33.6964 34.9949 33.3714 34.9994 33.0422V3.41313C34.9949 3.08396 34.9256 2.7589 34.7954 2.45651C34.6653 2.15413 34.4768 1.88034 34.2408 1.65079C34.0049 1.42124 33.726 1.24042 33.4201 1.11866C33.1143 0.996904 32.7874 0.936588 32.4583 0.94116ZM11.0576 29.8788H5.8716V14.3209H11.0576V29.8788ZM8.46458 12.1428C7.74937 12.1428 7.06346 11.8587 6.55773 11.353C6.052 10.8472 5.76788 10.1613 5.76788 9.44612C5.76788 8.73092 6.052 8.045 6.55773 7.53927C7.06346 7.03354 7.74937 6.74943 8.46458 6.74943C8.84436 6.70636 9.22895 6.74399 9.59317 6.85986C9.9574 6.97573 10.293 7.16723 10.5781 7.42181C10.8632 7.67639 11.0913 7.98832 11.2475 8.33716C11.4037 8.68601 11.4844 9.06391 11.4844 9.44612C11.4844 9.82834 11.4037 10.2062 11.2475 10.5551C11.0913 10.9039 10.8632 11.2159 10.5781 11.4704C10.293 11.725 9.9574 11.9165 9.59317 12.0324C9.22895 12.1483 8.84436 12.1859 8.46458 12.1428ZM29.7616 29.8788H24.5756V21.5294C24.5756 19.4377 23.8323 18.0721 21.9481 18.0721C21.3649 18.0764 20.7971 18.2593 20.3211 18.5962C19.8451 18.9331 19.4838 19.4078 19.2859 19.9563C19.1507 20.3626 19.092 20.7905 19.1131 21.2182V29.8615H13.9271C13.9271 29.8615 13.9271 15.7211 13.9271 14.3036H19.1131V16.499C19.5842 15.6816 20.2694 15.0081 21.0949 14.5512C21.9204 14.0943 22.8549 13.8712 23.7977 13.906C27.255 13.906 29.7616 16.136 29.7616 20.9244V29.8788Z" fill="#331F00"/>
</svg>
