<svg width="35" height="35" viewBox="0 0 35 35" fill="none" xmlns="http://www.w3.org/2000/svg">
<path d="M17.5482 0.941162C15.2781 0.941162 13.0303 1.38829 10.933 2.25702C8.83567 3.12575 6.93002 4.39906 5.32482 6.00426C2.08297 9.24611 0.261719 13.643 0.261719 18.2277C0.261719 25.8683 5.22295 32.3508 12.0857 34.6499C12.95 34.7882 13.2266 34.2523 13.2266 33.7855V30.8641C8.43824 31.9013 7.41833 28.5477 7.41833 28.5477C6.62316 26.5425 5.49953 26.0066 5.49953 26.0066C3.92646 24.9348 5.62054 24.9694 5.62054 24.9694C7.34919 25.0904 8.26537 26.7499 8.26537 26.7499C9.7693 29.3775 12.3104 28.5996 13.2957 28.1847C13.4513 27.0611 13.9008 26.3005 14.3848 25.8683C10.5472 25.4362 6.51944 23.9495 6.51944 17.3633C6.51944 15.4445 7.17632 13.906 8.29995 12.6787C8.12708 12.2465 7.52205 10.4487 8.47281 8.11507C8.47281 8.11507 9.92488 7.64833 13.2266 9.87829C14.5922 9.49799 16.0789 9.30784 17.5482 9.30784C19.0176 9.30784 20.5042 9.49799 21.8699 9.87829C25.1716 7.64833 26.6237 8.11507 26.6237 8.11507C27.5744 10.4487 26.9694 12.2465 26.7965 12.6787C27.9201 13.906 28.577 15.4445 28.577 17.3633C28.577 23.9668 24.532 25.4189 20.6771 25.851C21.2994 26.3869 21.8699 27.4414 21.8699 29.049V33.7855C21.8699 34.2523 22.1464 34.8054 23.0281 34.6499C29.8908 32.3335 34.8347 25.8683 34.8347 18.2277C34.8347 15.9576 34.3876 13.7097 33.5189 11.6124C32.6502 9.51512 31.3768 7.60947 29.7716 6.00426C28.1664 4.39906 26.2608 3.12575 24.1635 2.25702C22.0662 1.38829 19.8183 0.941162 17.5482 0.941162Z" fill="#331F00"/>
</svg>
