<svg id="Layer_1" data-name="Layer 1" xmlns="http://www.w3.org/2000/svg" xmlns:xlink="http://www.w3.org/1999/xlink" viewBox="0 0 78.14 71.278"><defs><linearGradient id="linear-gradient" x1="24.796" y1="90.807" x2="120.446" y2="70.607" gradientTransform="matrix(1, 0, 0, -1, 0, 162)" gradientUnits="userSpaceOnUse"><stop offset="0" stop-color="#efcf47"/><stop offset="0.17" stop-color="#fbc35a"/><stop offset="0.28" stop-color="#ffbf61"/><stop offset="0.58" stop-color="#e96498"/><stop offset="1" stop-color="#f0f"/></linearGradient><linearGradient id="linear-gradient-2" x1="46.2" y1="110.13" x2="43.38" y2="110.08" gradientTransform="matrix(1, 0, 0, -1, -43.67, 117.128)" gradientUnits="userSpaceOnUse"><stop offset="0" stop-color="#efcf47"/><stop offset="0.06" stop-color="#efcb4b"/><stop offset="0.42" stop-color="#edb85c"/><stop offset="0.68" stop-color="#edb162"/></linearGradient><linearGradient id="linear-gradient-3" x1="116.87" y1="53.38" x2="119.7" y2="53.38" gradientTransform="matrix(1, 0, 0, -1, -43.67, 117.128)" gradientUnits="userSpaceOnUse"><stop offset="0" stop-color="#f0f"/><stop offset="1" stop-color="#e96498"/></linearGradient><linearGradient id="linear-gradient-4" x1="118.99" y1="47.26" x2="121.82" y2="47.26" xlink:href="#linear-gradient-3"/><linearGradient id="linear-gradient-5" x1="46.73" y1="104.23" x2="49.55" y2="104.23" gradientTransform="matrix(1, 0, 0, -1, -43.67, 117.128)" gradientUnits="userSpaceOnUse"><stop offset="0" stop-color="#e8ac5d"/><stop offset="1" stop-color="#efcf47"/></linearGradient></defs><title>logo2</title><g id="Layer_12" data-name="Layer 12"><path d="M117.34,114.72h0a1.4,1.4,0,0,1-1.38,1.41H53.15c-5,0-8-5.83-5.52-10.45L73.08,59.19H52.82a1.38,1.38,0,0,1-1.34-1.419h0a1.38,1.38,0,0,1,1.339-1.42H57.89a1.38,1.38,0,0,0,1.34-1.41h0a1.38,1.38,0,0,0-1.34-1.41H51a1.38,1.38,0,0,1-1.317-1.44c0-.03,0-.06.007-.09h0A1.381,1.381,0,0,1,51,50.57H61a1.38,1.38,0,0,0,1.34-1.41h0a1.38,1.38,0,0,0-1.3-1.458L61,47.7H53.71a1.38,1.38,0,0,1-1.34-1.41h0a1.38,1.38,0,0,1,1.34-1.41H63.92a1.405,1.405,0,0,1,.29,0H84.63c5,0,8,5.85,5.52,10.47L64.69,101.79h38.25a4.339,4.339,0,0,1,.51,0h5.14a1.461,1.461,0,0,1,1.6,1.3c0,.036.006.072.007.108h0a1.4,1.4,0,0,1-1.38,1.41h-7.37a1.4,1.4,0,0,0-1.38,1.41v.05a1.4,1.4,0,0,0,1.38,1.41h12.67a1.4,1.4,0,0,1,1.385,1.415c0,.035,0,.07,0,.105h0a1.4,1.4,0,0,1-1.38,1.41H98.92a1.389,1.389,0,0,0-1.38,1.4v.01h0a1.39,1.39,0,0,0,1.37,1.41h17.01a1.4,1.4,0,0,1,1.423,1.377C117.343,114.645,117.342,114.682,117.34,114.72Z" transform="translate(-43.67 -44.872)" fill="url(#linear-gradient)"/><circle cx="1.41" cy="7.018" r="1.41" fill="url(#linear-gradient-2)"/><circle cx="74.62" cy="63.748" r="1.41" fill="url(#linear-gradient-3)"/><circle cx="76.73" cy="69.868" r="1.41" fill="url(#linear-gradient-4)"/><circle cx="4.47" cy="12.898" r="1.41" fill="url(#linear-gradient-5)"/></g></svg>