<svg id="Layer_1" data-name="Layer 1" xmlns="http://www.w3.org/2000/svg" viewBox="0 0 82.98 98.7"><defs><style>.cls-1{fill:#eed492;opacity:0.73;isolation:isolate;}.cls-2{fill:#8e6c64;}</style></defs><path id="egg" class="cls-1" d="M75.65,49.84c20,32.33-22.63,46.32-41.1,41.74C10.89,85.71,4,71.42,4.07,46.64S14.34,7.69,39.12,7.75,62.61,28.77,75.65,49.84Z"/><path class="cls-2" d="M43.81,50.91a1.41,1.41,0,0,1-.29,0,1.49,1.49,0,0,1-1.25-1.7v0l3.09-16.41v-.07A.55.55,0,0,0,45,32h0a.55.55,0,0,0-.66.4l-.9,3.66A1.73,1.73,0,0,1,40,35.68v-7.4a.64.64,0,0,0-.15-.38.59.59,0,0,0-.39-.16h0a.55.55,0,0,0-.39.16.53.53,0,0,0-.16.38v5.84a1.73,1.73,0,0,1-3.41.43L35,32.4a.55.55,0,0,0-.66-.4.51.51,0,0,0-.34.25.49.49,0,0,0-.06.41v.08l3.14,16.4a1.51,1.51,0,0,1-2.95.55L31,33.32a3.54,3.54,0,0,1,4.93-4v-1a3.55,3.55,0,0,1,3.55-3.55h0a3.53,3.53,0,0,1,2.49,1,3.49,3.49,0,0,1,1,2.49v1.25A3.55,3.55,0,0,1,48,30.66a3.5,3.5,0,0,1,.43,2.66l-3.1,16.37A1.5,1.5,0,0,1,43.81,50.91Z"/><path class="cls-2" d="M48.56,64.56H30.65a1.51,1.51,0,0,1-1.55-1.37A25.57,25.57,0,0,0,23,48.68,22,22,0,0,1,39.7,12.46h.17A22,22,0,0,1,56.31,48.77,25.9,25.9,0,0,0,50.08,63.2,1.5,1.5,0,0,1,48.56,64.56Zm-16.62-3H47.23A29,29,0,0,1,54,46.8,19,19,0,0,0,39.85,15.46H39.7A19,19,0,0,0,25.29,46.74,28.46,28.46,0,0,1,31.94,61.56Z"/><path class="cls-2" d="M48.42,70H30.7a4.23,4.23,0,0,1-.17-8.45H48.62a4.23,4.23,0,1,1-.2,8.45Zm-17.7-5.46h-.07a1.25,1.25,0,1,0,0,2.49H48.42a1.25,1.25,0,1,0,.06-2.49Z"/><path class="cls-2" d="M48.42,75.47H30.7A4.23,4.23,0,0,1,30.53,67H48.62a4.23,4.23,0,1,1-.2,8.45ZM30.72,70h-.07a1.25,1.25,0,0,0,.07,2.49h17.7A1.25,1.25,0,1,0,48.48,70Z"/><path class="cls-2" d="M66.55,66.47a5.26,5.26,0,1,1,5.24-5.27h0A5.26,5.26,0,0,1,66.55,66.47Zm0-7.48a2.26,2.26,0,1,0,2.25,2.26v0A2.25,2.25,0,0,0,66.55,59Z"/><path class="cls-2" d="M15.55,60.46a3.74,3.74,0,1,1,3.74-3.74A3.74,3.74,0,0,1,15.55,60.46Zm0-4.5a.76.76,0,1,0,.75.77v0A.76.76,0,0,0,15.55,56Z"/><path class="cls-2" d="M9.54,27.47a3.74,3.74,0,1,1,3.74-3.74A3.75,3.75,0,0,1,9.54,27.47Zm0-4.5a.75.75,0,1,0,.75.74A.74.74,0,0,0,9.54,23Z"/><path class="cls-2" d="M39.55,80a5.26,5.26,0,0,1-5.25-5.26V74a1.5,1.5,0,0,1,1.49-1.5h7.48a1.5,1.5,0,0,1,1.5,1.5h0v.75A5.26,5.26,0,0,1,39.55,80Zm-2.12-4.5a2.23,2.23,0,0,0,2.85,1.38,2.26,2.26,0,0,0,1.39-1.38Z"/><rect class="cls-2" x="67.29" y="19.96" width="3" height="3"/><rect class="cls-2" x="70.3" y="16.96" width="3" height="3"/><rect class="cls-2" x="64.3" y="16.96" width="3" height="3"/><rect class="cls-2" x="67.29" y="13.97" width="3" height="3"/><rect class="cls-2" x="13.3" y="70.97" width="3" height="3"/><rect class="cls-2" x="16.3" y="67.96" width="3" height="3"/><rect class="cls-2" x="10.29" y="67.96" width="3" height="3"/><rect class="cls-2" x="13.3" y="64.96" width="3" height="3"/></svg>