<svg id="Layer_1" data-name="Layer 1" xmlns="http://www.w3.org/2000/svg" xmlns:xlink="http://www.w3.org/1999/xlink" viewBox="0 0 66 82.5"><defs><style>.cls-1{fill:url(#linear-gradient);}.cls-2{fill:url(#linear-gradient-2);}.cls-3{fill:url(#linear-gradient-3);}.cls-4{fill:url(#linear-gradient-4);}.cls-5{fill:url(#linear-gradient-5);}.cls-6{fill:url(#linear-gradient-6);}.cls-7{fill:url(#linear-gradient-7);}.cls-8{fill:url(#linear-gradient-8);}.cls-9{fill:url(#linear-gradient-9);}.cls-10{fill:url(#linear-gradient-10);}.cls-11{fill:url(#linear-gradient-11);}.cls-12{fill:url(#linear-gradient-12);}.cls-13{fill:url(#linear-gradient-13);}.cls-14{fill:url(#linear-gradient-14);}.cls-15{fill:url(#linear-gradient-15);}.cls-16{fill:url(#linear-gradient-16);}</style><linearGradient id="linear-gradient" x1="28.07" y1="42.78" x2="37.42" y2="24.44" gradientUnits="userSpaceOnUse"><stop offset="0" stop-color="#efcf48"/><stop offset="1" stop-color="#e96498"/></linearGradient><linearGradient id="linear-gradient-2" x1="21.94" y1="52.64" x2="41.28" y2="14.67" xlink:href="#linear-gradient"/><linearGradient id="linear-gradient-3" x1="30" y1="61.35" x2="36.01" y2="49.55" xlink:href="#linear-gradient"/><linearGradient id="linear-gradient-4" x1="30" y1="65.72" x2="36.01" y2="53.93" xlink:href="#linear-gradient"/><linearGradient id="linear-gradient-5" x1="52.75" y1="55.54" x2="56.57" y2="48.03" xlink:href="#linear-gradient"/><linearGradient id="linear-gradient-6" x1="12.38" y1="50.85" x2="15.11" y2="45.49" xlink:href="#linear-gradient"/><linearGradient id="linear-gradient-7" x1="7.57" y1="24.38" x2="10.3" y2="19.02" xlink:href="#linear-gradient"/><linearGradient id="linear-gradient-8" x1="31.11" y1="66.38" x2="34.43" y2="59.86" xlink:href="#linear-gradient"/><linearGradient id="linear-gradient-9" x1="55.73" y1="21.34" x2="57.2" y2="18.45" xlink:href="#linear-gradient"/><linearGradient id="linear-gradient-10" x1="58.14" y1="18.93" x2="59.61" y2="16.04" xlink:href="#linear-gradient"/><linearGradient id="linear-gradient-11" x1="53.32" y1="18.93" x2="54.79" y2="16.04" xlink:href="#linear-gradient"/><linearGradient id="linear-gradient-12" x1="55.73" y1="16.52" x2="57.2" y2="13.64" xlink:href="#linear-gradient"/><linearGradient id="linear-gradient-13" x1="12.41" y1="62.25" x2="13.88" y2="59.37" xlink:href="#linear-gradient"/><linearGradient id="linear-gradient-14" x1="14.82" y1="59.84" x2="16.29" y2="56.96" xlink:href="#linear-gradient"/><linearGradient id="linear-gradient-15" x1="10" y1="59.84" x2="11.47" y2="56.96" xlink:href="#linear-gradient"/><linearGradient id="linear-gradient-16" x1="12.41" y1="57.44" x2="13.88" y2="54.55" xlink:href="#linear-gradient"/></defs><path class="cls-1" d="M36.42,43.52a.9.9,0,0,1-.23,0,1.2,1.2,0,0,1-1-1.4l2.48-13.16s0,0,0-.06a.43.43,0,0,0-.32-.53.44.44,0,0,0-.53.32l-.72,2.94a1.39,1.39,0,0,1-2.74-.33V25.36a.44.44,0,0,0-.12-.3.45.45,0,0,0-.31-.13h0a.43.43,0,0,0-.31.13.4.4,0,0,0-.13.3v4.69a1.39,1.39,0,0,1-2.74.34l-.42-1.72a.44.44,0,0,0-.53-.32.38.38,0,0,0-.27.2.39.39,0,0,0-.05.33s0,0,0,.06L31,42.1a1.21,1.21,0,0,1-2.37.44L26.17,29.41a2.84,2.84,0,0,1,3.95-3.22v-.82A2.85,2.85,0,0,1,33,22.52h0a2.85,2.85,0,0,1,2,.83,2.81,2.81,0,0,1,.83,2v1a2.84,2.84,0,0,1,4.26,3.06L37.6,42.54A1.21,1.21,0,0,1,36.42,43.52Z"/><path class="cls-2" d="M40.23,54.47H25.86a1.21,1.21,0,0,1-1.24-1.1,20.51,20.51,0,0,0-4.89-11.64A17.64,17.64,0,0,1,33.12,12.67h.14A17.62,17.62,0,0,1,46.45,41.8a20.79,20.79,0,0,0-5,11.58A1.2,1.2,0,0,1,40.23,54.47ZM26.9,52.06H39.16a23.26,23.26,0,0,1,5.47-11.84A15.2,15.2,0,0,0,33.24,15.08h-.12A15.21,15.21,0,0,0,21.56,40.17,22.85,22.85,0,0,1,26.9,52.06Z"/><path class="cls-3" d="M40.12,58.84H25.9a3.39,3.39,0,0,1-.13-6.78H40.28a3.39,3.39,0,0,1-.16,6.78Zm-14.2-4.38h-.06a1,1,0,0,0,0,2H40.12a1,1,0,0,0,.05-2H25.92Z"/><path class="cls-4" d="M40.12,63.22H25.9a3.39,3.39,0,0,1-.13-6.78H40.28a3.39,3.39,0,0,1-.16,6.78Zm-14.2-4.38h-.06a1,1,0,0,0-.94,1,1,1,0,0,0,1,1H40.12a1,1,0,0,0,.05-2H25.92Z"/><path class="cls-5" d="M54.66,56a4.22,4.22,0,1,1,4.21-4.22A4.22,4.22,0,0,1,54.66,56Zm0-6a1.81,1.81,0,1,0,1.81,1.8A1.81,1.81,0,0,0,54.66,50Z"/><path class="cls-6" d="M13.75,51.18a3,3,0,1,1,3-3A3,3,0,0,1,13.75,51.18Zm0-3.61a.61.61,0,1,0,.6.6A.6.6,0,0,0,13.75,47.57Z"/><path class="cls-7" d="M8.93,24.71a3,3,0,1,1,3-3A3,3,0,0,1,8.93,24.71Zm0-3.61a.6.6,0,1,0,.6.6A.6.6,0,0,0,8.93,21.1Z"/><path class="cls-8" d="M33,66.83a4.22,4.22,0,0,1-4.21-4.22V62a1.2,1.2,0,0,1,1.2-1.2h6a1.2,1.2,0,0,1,1.2,1.2v.6A4.22,4.22,0,0,1,33,66.83Zm-1.7-3.61a1.8,1.8,0,0,0,3.4,0Z"/><rect class="cls-9" x="55.26" y="18.69" width="2.41" height="2.41"/><rect class="cls-10" x="57.67" y="16.28" width="2.41" height="2.41"/><rect class="cls-11" x="52.86" y="16.28" width="2.41" height="2.41"/><rect class="cls-12" x="55.26" y="13.88" width="2.41" height="2.41"/><rect class="cls-13" x="11.94" y="59.61" width="2.41" height="2.41"/><rect class="cls-14" x="14.35" y="57.2" width="2.41" height="2.41"/><rect class="cls-15" x="9.53" y="57.2" width="2.41" height="2.41"/><rect class="cls-16" x="11.94" y="54.79" width="2.41" height="2.41"/></svg>