<svg id="Layer_1" data-name="Layer 1" xmlns="http://www.w3.org/2000/svg" viewBox="0 0 82.98 98.7"><defs><style>.cls-1{fill:#eed492;opacity:0.73;}.cls-2{fill:#8e6c64;}</style></defs><path id="egg" class="cls-1" d="M75.65,49.84c20,32.33-22.63,46.32-41.1,41.74C10.89,85.71,4,71.42,4.07,46.64S14.34,7.69,39.12,7.75,62.61,28.77,75.65,49.84Z"/><path class="cls-2" d="M22.49,27.9a6.52,6.52,0,0,0-6.33,6.65V74.23a6.48,6.48,0,0,0,6.33,6.61h38a6.47,6.47,0,0,0,6.32-6.61V34.55a6.5,6.5,0,0,0-6.32-6.65Zm0,2.42h38a4.11,4.11,0,0,1,4,4.2V74.23a4.08,4.08,0,0,1-4,4.2h-38a4.1,4.1,0,0,1-4-4.15V34.55a4.09,4.09,0,0,1,4-4.22ZM51.67,36c-4,1.09-8.05,2.24-12.07,3.37H27.08v3.5c-1.08.28-2.14.58-3.22.88q1.59,6.3,3.22,12.62V69.42h3.37l.87,3.39c4-1.11,8.09-2.26,12.14-3.39h12.4v-3.5q1.62-.45,3.24-.87c-1.06-4.23-2.16-8.47-3.24-12.69v-13H52.51c-.27-1.15-.56-2.26-.85-3.37ZM29.4,41.77H53.56V52.31l-5.35-6.42c-.69-.6-1.24-.38-1.81.11l-6,8.83-3.75-4.17c-.68-.55-1.18-.34-1.75.11l-5.53,7.7Z"/></svg>