<svg id="Layer_1" data-name="Layer 1" xmlns="http://www.w3.org/2000/svg" xmlns:xlink="http://www.w3.org/1999/xlink" viewBox="0 0 66 82.5"><defs><style>.cls-1{fill:url(#linear-gradient);}.cls-2{fill:url(#linear-gradient-2);}.cls-3{fill:url(#linear-gradient-3);}.cls-4{fill:url(#linear-gradient-4);}</style><linearGradient id="linear-gradient" x1="19.82" y1="79.78" x2="51.89" y2="16.85" gradientUnits="userSpaceOnUse"><stop offset="0" stop-color="#efcf48"/><stop offset="1" stop-color="#e96498"/></linearGradient><linearGradient id="linear-gradient-2" x1="26.99" y1="35" x2="29.11" y2="30.84" xlink:href="#linear-gradient"/><linearGradient id="linear-gradient-3" x1="36.75" y1="35" x2="38.87" y2="30.84" xlink:href="#linear-gradient"/><linearGradient id="linear-gradient-4" x1="31.53" y1="45.29" x2="34.21" y2="40.03" xlink:href="#linear-gradient"/></defs><path class="cls-1" d="M59.47,69.84l-1.72-6.53a12.63,12.63,0,0,0-10.66-9.42l-4.74-.69-.69-2.13A16.87,16.87,0,0,0,48.4,41c1.17-.62,3-2.2,3-6.05,0-2.82-.48-4.53-1.44-5.43a3.39,3.39,0,0,0-1.86-.89A50.91,50.91,0,0,0,49,20c-.14-4.4-2.34-7.29-5.71-6.19a28.29,28.29,0,0,0-19.8-4.33c.14.48.62,1.85.76,2.61a11,11,0,0,0-5-1,11.53,11.53,0,0,0-.2,6.87,36.87,36.87,0,0,0-1,10.59,2.75,2.75,0,0,0-1.92.83c-1,1-1.51,2.68-1.51,5.49,0,3.85,1.92,5.44,3,6A16.76,16.76,0,0,0,24.34,51l-.76,2.13-4.74.69A12.56,12.56,0,0,0,8.25,63.24L6.53,69.77a3.62,3.62,0,0,0,.62,3.16,3.76,3.76,0,0,0,3,1.44H56a3.63,3.63,0,0,0,2.89-1.44A3.76,3.76,0,0,0,59.47,69.84ZM19.94,39.73a1.32,1.32,0,0,0-1-1c-.14-.06-1.79-.61-1.79-3.78,0-2.75.48-3.43.76-3.64a.23.23,0,0,1,.2-.07,16.91,16.91,0,0,0,.35,2.13.64.64,0,0,0,.61.48h1.1a.62.62,0,0,0,.62-.68c-.14-1.72-.27-6.4,2.27-10.32,3.51,1.59,10.31,4.61,19.94.07,2.54,3.3,2.4,8.46,2.27,10.25a.67.67,0,0,0,.61.68h.9a.6.6,0,0,0,.62-.48c.07-.48.2-1.24.41-2.13a.49.49,0,0,1,.41.14c.14.14.62.82.62,3.57,0,3.17-1.65,3.72-1.79,3.78a1.32,1.32,0,0,0-1,1.1c-1.24,6.67-6.67,11.48-13,11.48S21.24,46.39,19.94,39.73ZM33,54a15.34,15.34,0,0,0,6.32-1.45l1.17,3.58a12.68,12.68,0,0,1-15,0l1.17-3.58A15.41,15.41,0,0,0,33,54ZM56.65,71.35h0a1,1,0,0,1-.76.41H10a1,1,0,0,1-.83-.41.92.92,0,0,1-.2-.83L10.73,64A9.91,9.91,0,0,1,19,56.57l3.44-.48a1.38,1.38,0,0,0,.41,1.44,15.47,15.47,0,0,0,19.94,0,1.2,1.2,0,0,0,.41-1.44l3.44.48A10,10,0,0,1,55.07,64l1.72,6.53A.76.76,0,0,1,56.65,71.35Z"/><circle class="cls-2" cx="28.05" cy="32.92" r="2.34"/><circle class="cls-3" cx="37.81" cy="32.92" r="2.34"/><path class="cls-4" d="M28.26,41.79a1,1,0,0,0-.14,1.37,6.45,6.45,0,0,0,4.81,1.93,6.34,6.34,0,0,0,4.81-1.93,1,1,0,1,0-1.51-1.23c-1.24,1.51-5.43,1.51-6.74,0A.76.76,0,0,0,28.26,41.79Z"/></svg>