<svg width="70" height="80" viewBox="0 0 70 80" fill="none" xmlns="http://www.w3.org/2000/svg">
<path d="M56.7514 62.7517L55.3401 57.4589C54.8263 55.4661 53.7173 53.6721 52.1574 52.3104C50.5975 50.9486 48.6588 50.0822 46.5936 49.8236L42.7044 49.2644L42.1383 47.5379C44.9304 45.5818 46.8914 42.6746 47.6438 39.3758C48.6038 38.8733 50.1053 37.5926 50.1053 34.5126C50.1053 32.2269 49.7115 30.8409 48.9238 30.1114C48.5006 29.7241 47.9685 29.4726 47.3977 29.39C47.8407 27.0828 48.0877 24.743 48.1361 22.3951C48.0213 18.8287 46.2162 16.4863 43.4511 17.3778C38.666 14.2589 32.8838 12.9947 27.2134 13.8277C27.3282 14.2168 27.7221 15.3272 27.837 15.9432C26.552 15.3611 25.1472 15.0835 23.7345 15.1327C23.1028 16.9282 23.0455 18.8722 23.5704 20.701C22.876 23.5076 22.5996 26.3993 22.7499 29.2846C22.1565 29.2994 21.5919 29.5405 21.1745 29.9574C20.354 30.7679 19.9355 32.1296 19.9355 34.4072C19.9355 37.5278 21.5109 38.8166 22.397 39.2705C23.127 42.5938 25.0951 45.5246 27.9108 47.4812L27.2872 49.2076L23.3981 49.7669C21.34 50.0275 19.4095 50.8958 17.8591 52.2581C16.3088 53.6204 15.2108 55.4133 14.709 57.4022L13.2649 62.695C13.1432 63.1317 13.1258 63.5903 13.2141 64.0348C13.3024 64.4792 13.4939 64.8974 13.7736 65.2563C14.0649 65.6253 14.4386 65.9227 14.8657 66.1252C15.2927 66.3277 15.7614 66.4298 16.2351 66.4234H53.8796C54.3392 66.4228 54.7925 66.3171 55.2039 66.1147C55.6152 65.9122 55.9736 65.6184 56.2509 65.2563C56.5107 64.8984 56.6898 64.4897 56.7762 64.0576C56.8625 63.6256 56.8541 63.1803 56.7514 62.7517ZM24.2924 38.3464C24.244 38.15 24.1419 37.9705 23.9972 37.8275C23.8525 37.6846 23.6708 37.5837 23.4719 37.5359C23.357 37.4873 22.0032 37.0415 22.0032 34.4721C22.0032 32.2431 22.397 31.6919 22.6268 31.5217C22.6479 31.5005 22.6737 31.4843 22.7022 31.4745C22.7306 31.4647 22.761 31.4614 22.7909 31.465C22.8541 32.0608 22.961 32.6514 23.1109 33.232C23.1384 33.3427 23.2026 33.4412 23.2933 33.5117C23.384 33.5822 23.496 33.6207 23.6114 33.621H24.5139C24.5803 33.6221 24.6463 33.6101 24.708 33.5857C24.7697 33.5614 24.8258 33.5251 24.8732 33.4791C24.9205 33.4331 24.9581 33.3782 24.9838 33.3177C25.0094 33.2572 25.0227 33.1922 25.0226 33.1266V33.0698C24.9078 31.6757 24.8011 27.8824 26.8852 24.7051C29.7323 25.9371 35.3117 28.3687 43.2131 24.7213C45.2644 27.3961 45.1823 31.6109 45.0757 33.0293C45.071 33.1672 45.1205 33.3016 45.2138 33.4043C45.3071 33.507 45.4369 33.5701 45.5762 33.5805H46.3146C46.4273 33.5902 46.5398 33.5607 46.6327 33.497C46.7257 33.4334 46.7931 33.3396 46.8233 33.232C46.8808 32.8429 46.9874 32.2269 47.1597 31.5055C47.2208 31.4994 47.2824 31.5064 47.3405 31.526C47.3985 31.5456 47.4516 31.5773 47.4961 31.619C47.611 31.7325 48.0049 32.2836 48.0049 34.5126C48.0049 37.082 46.651 37.5278 46.5362 37.5764C46.3246 37.6264 46.1331 37.7382 45.9868 37.8973C45.8404 38.0563 45.7459 38.2552 45.7157 38.468C44.6982 43.8743 40.2429 47.773 35.0492 47.773C29.8554 47.773 25.359 43.7689 24.2924 38.3464ZM35.0081 49.9128C36.802 49.8935 38.5707 49.4927 40.1937 48.7375L41.1619 51.6392C39.3782 52.9349 37.2221 53.6337 35.0081 53.6337C32.7941 53.6337 30.638 52.9349 28.8544 51.6392L29.8144 48.7375C31.44 49.4933 33.2115 49.8942 35.0081 49.9128ZM54.413 63.9756C54.3408 64.0735 54.2473 64.1542 54.1394 64.2117C54.0314 64.2692 53.9119 64.3021 53.7894 64.3079H16.1366C16.0044 64.3109 15.8734 64.2822 15.7548 64.2243C15.6363 64.1665 15.5336 64.0811 15.4556 63.9756C15.3734 63.8861 15.3152 63.7775 15.2866 63.66C15.2579 63.5424 15.2596 63.4196 15.2915 63.3029L16.7356 58.0182C17.1284 56.4597 17.9847 55.0531 19.1941 53.9798C20.4035 52.9064 21.9106 52.2154 23.5211 51.9959L26.3436 51.6068C26.279 51.8126 26.2764 52.0326 26.3362 52.2398C26.3959 52.4471 26.5154 52.6327 26.6801 52.774C28.9685 54.6815 31.8662 55.7278 34.8604 55.7278C37.8547 55.7278 40.7524 54.6815 43.0408 52.774C43.2214 52.645 43.3527 52.4597 43.4137 52.248C43.4747 52.0363 43.4619 51.8104 43.3772 51.6068L46.1998 51.9959C47.8307 52.1997 49.3621 52.8827 50.5954 53.9565C51.8287 55.0303 52.7071 56.4454 53.1166 58.0182L54.5278 63.311C54.5751 63.421 54.5894 63.5421 54.5691 63.6599C54.5487 63.7778 54.4945 63.8873 54.413 63.9756Z" fill="#331F00"/>
<path d="M30.9468 34.7235C32.0072 34.7235 32.8668 33.8743 32.8668 32.8268C32.8668 31.7793 32.0072 30.9302 30.9468 30.9302C29.8865 30.9302 29.0269 31.7793 29.0269 32.8268C29.0269 33.8743 29.8865 34.7235 30.9468 34.7235Z" fill="#331F00"/>
<path d="M38.9551 34.7235C40.0155 34.7235 40.8751 33.8743 40.8751 32.8268C40.8751 31.7793 40.0155 30.9302 38.9551 30.9302C37.8948 30.9302 37.0352 31.7793 37.0352 32.8268C37.0352 33.8743 37.8948 34.7235 38.9551 34.7235Z" fill="#331F00"/>
<path d="M31.119 40.0162C30.9595 40.1515 30.8586 40.3422 30.8373 40.5488C30.8159 40.7554 30.8756 40.9623 31.0042 41.1267C31.5158 41.6441 32.131 42.0504 32.8106 42.3197C33.4901 42.5891 34.219 42.7155 34.9508 42.691C35.6831 42.7206 36.4136 42.5965 37.0939 42.3269C37.7741 42.0572 38.3888 41.6482 38.8974 41.1267C39.0693 40.9934 39.1806 40.7981 39.2067 40.5838C39.2329 40.3694 39.1718 40.1536 39.0369 39.9838C38.9019 39.814 38.7042 39.7041 38.4873 39.6782C38.2703 39.6524 38.0519 39.7127 37.8799 39.846C37.7826 39.9222 37.7041 40.0192 37.6502 40.1297C36.641 41.3374 33.2031 41.3374 32.1364 40.1297C32.0543 39.9962 31.9244 39.8979 31.7725 39.8544C31.6206 39.8109 31.4577 39.8252 31.3159 39.8946C31.2426 39.9215 31.1756 39.9629 31.119 40.0162Z" fill="#331F00"/>
</svg>
