<svg id="Layer_1" data-name="Layer 1" xmlns="http://www.w3.org/2000/svg" viewBox="0 0 82.98 98.7"><defs><style>.cls-1{fill:#eed492;opacity:0.73;}.cls-2{fill:#8e6c64;}</style></defs><path id="egg" class="cls-1" d="M75.65,49.84c20,32.33-22.63,46.32-41.1,41.74C10.89,85.71,4,71.42,4.07,46.64S14.34,7.69,39.12,7.75,62.61,28.77,75.65,49.84Z"/><path class="cls-2" d="M70.49,21.75h-58a1,1,0,0,0-1,1v58a1,1,0,0,0,1,1h58a1,1,0,0,0,1-1v-58A1,1,0,0,0,70.49,21.75Zm-1,58h-56v-35h56Zm0-37h-56v-19h56Z"/><path class="cls-2" d="M16.49,61.3h12a1,1,0,0,0,1-1V47.75a1,1,0,0,0-1-1h-12a1,1,0,0,0-1,1V60.3A1,1,0,0,0,16.49,61.3Zm1-12.55h10v1.59L24.36,53.5,22,52A1,1,0,0,0,21,52l-3.49,2Zm0,7.57,4-2.39L24,55.58a1,1,0,0,0,1.26-.08l2.26-2.34V59.3h-10Z"/><rect class="cls-2" x="31.49" y="46.75" width="36" height="2"/><rect class="cls-2" x="31.49" y="50.75" width="36" height="2"/><rect class="cls-2" x="31.49" y="54.75" width="36" height="2"/><rect class="cls-2" x="31.49" y="58.75" width="23" height="2"/><path class="cls-2" d="M20.22,74A5.26,5.26,0,1,0,15,68.71h0A5.25,5.25,0,0,0,20.22,74Zm0-8.51A3.26,3.26,0,1,1,17,68.75a3.26,3.26,0,0,1,3.26-3.29Z"/><rect class="cls-2" x="15.49" y="75.75" width="9.45" height="2"/><path class="cls-2" d="M34.4,74a5.26,5.26,0,1,0-5.26-5.26h0A5.25,5.25,0,0,0,34.4,74Zm0-8.51a3.26,3.26,0,1,1-3.26,3.29,3.26,3.26,0,0,1,3.26-3.29Z"/><rect class="cls-2" x="29.67" y="75.75" width="9.46" height="2"/><path class="cls-2" d="M48.58,63.5a5.26,5.26,0,1,0,5.26,5.29,5.26,5.26,0,0,0-5.26-5.29Zm0,8.51a3.26,3.26,0,1,1,3.26-3.26h0A3.28,3.28,0,0,1,48.58,72Z"/><rect class="cls-2" x="43.85" y="75.75" width="9.46" height="2"/><path class="cls-2" d="M62.76,63.5A5.26,5.26,0,1,0,68,68.79a5.26,5.26,0,0,0-5.26-5.29Zm0,8.51A3.26,3.26,0,1,1,66,68.75h0A3.28,3.28,0,0,1,62.76,72Z"/><rect class="cls-2" x="58.04" y="75.75" width="9.45" height="2"/><path class="cls-2" d="M39,38.61a1,1,0,0,0,1,0l7-4a1,1,0,0,0,.5-.82,1,1,0,0,0-.42-.86l-7-5a1,1,0,0,0-1.39.23,1,1,0,0,0-.19.58v9A1,1,0,0,0,39,38.61Zm1.5-7.92,4.15,3L40.49,36Z"/></svg>