<svg width="68" height="68" viewBox="0 0 68 68" fill="none" xmlns="http://www.w3.org/2000/svg">
<path d="M42.4542 47.0392C42.1726 47.0392 41.9035 46.9274 41.7047 46.7287L37.2728 42.2958C37.0565 42.0794 36.9436 41.7792 36.9643 41.4738C36.9861 41.1674 37.1383 40.8858 37.3826 40.7015C38.0172 40.2201 38.6145 39.7015 39.158 39.158C39.7025 38.6134 40.2212 38.0161 40.7026 37.3815C40.8868 37.1372 41.1684 36.985 41.4749 36.9633C41.7792 36.9457 42.0805 37.0544 42.2968 37.2718L46.7287 41.7047C47.1428 42.1187 47.1428 42.7896 46.7287 43.2037L43.2037 46.7287C43.0049 46.9274 42.7358 47.0392 42.4542 47.0392ZM39.6052 41.6301L42.4542 44.4801L44.4802 42.4542L41.6312 39.6052C41.3175 39.9706 40.9914 40.3226 40.657 40.657C40.3237 40.9914 39.9717 41.3164 39.6052 41.6301Z" fill="#331F00"/>
<path d="M54.1506 60.0005C52.6526 60.0005 51.1546 59.4301 50.0137 58.2893L40.0796 48.3551C39.6655 47.941 39.6655 47.2702 40.0796 46.8561L46.8563 40.0784C47.2538 39.6809 47.9578 39.6809 48.3553 40.0784L58.2894 50.0126C60.5701 52.2942 60.5701 56.0076 58.2894 58.2893C57.1486 59.4301 55.6496 60.0005 54.1506 60.0005ZM42.3281 47.6056L51.5128 56.7902C52.9683 58.2437 55.3349 58.2437 56.7904 56.7902C58.2449 55.3347 58.2449 52.9671 56.7904 51.5116L47.6058 42.327L42.3281 47.6056Z" fill="#331F00"/>
<path d="M26.714 46.4218C21.6652 46.4218 16.6184 44.5025 12.7777 40.6618C9.05184 36.9349 7 31.9823 7 26.715C7 21.4478 9.05184 16.4973 12.7777 12.7766C16.4973 9.05184 21.4478 7 26.714 7C31.9813 7 36.9339 9.05184 40.6597 12.7777C48.3411 20.4591 48.3411 32.9668 40.6607 40.6607C40.6597 40.6618 40.6597 40.6618 40.6586 40.6628C36.8127 44.5015 31.7629 46.4218 26.714 46.4218ZM26.714 9.12016C22.014 9.12016 17.5977 10.9505 14.2777 14.2767C10.9505 17.5977 9.12016 22.014 9.12016 26.715C9.12016 31.4161 10.9515 35.8365 14.2767 39.1627C21.132 46.016 32.2929 46.015 39.1607 39.1627C46.015 32.295 46.015 21.132 39.1607 14.2767C35.8344 10.9515 31.415 9.12016 26.714 9.12016Z" fill="#331F00"/>
<path d="M37.4267 36.5252H32.8364C32.2505 36.5252 31.7764 36.0511 31.7764 35.4651V17.9634C31.7764 17.3775 32.2505 16.9033 32.8364 16.9033H37.4267C38.0126 16.9033 38.4868 17.3775 38.4868 17.9634V35.4651C38.4868 36.0511 38.0126 36.5252 37.4267 36.5252ZM33.8965 34.405H36.3666V19.0235H33.8965V34.405Z" fill="#331F00"/>
<path d="M29.0092 36.5256H24.419C23.833 36.5256 23.3589 36.0514 23.3589 35.4655V23.2642C23.3589 22.6782 23.833 22.2041 24.419 22.2041H29.0092C29.5952 22.2041 30.0693 22.6782 30.0693 23.2642V35.4655C30.0693 36.0514 29.5952 36.5256 29.0092 36.5256ZM25.4791 34.4054H27.9491V24.3243H25.4791V34.4054Z" fill="#331F00"/>
<path d="M20.5927 36.5254H16.0025C15.4165 36.5254 14.9424 36.0512 14.9424 35.4653V28.9619C14.9424 28.376 15.4165 27.9019 16.0025 27.9019H20.5927C21.1786 27.9019 21.6528 28.376 21.6528 28.9619V35.4653C21.6528 36.0512 21.1786 36.5254 20.5927 36.5254ZM17.0625 34.4052H19.5326V30.022H17.0625V34.4052Z" fill="#331F00"/>
<path d="M39.6004 36.5259H13.8272C13.2412 36.5259 12.7671 36.0518 12.7671 35.4658C12.7671 34.8799 13.2412 34.4058 13.8272 34.4058H39.6004C40.1864 34.4058 40.6605 34.8799 40.6605 35.4658C40.6605 36.0518 40.1864 36.5259 39.6004 36.5259Z" fill="#331F00"/>
</svg>
