<svg id="Layer_1" data-name="Layer 1" xmlns="http://www.w3.org/2000/svg" viewBox="0 0 344 323"><defs><style>.cls-1{font-size:19px;}.cls-1,.cls-2{fill:#a58780;font-family:MyriadPro-Regular, Myriad Pro;}.cls-2{font-size:30px;}</style></defs><text class="cls-1" transform="translate(81.15 57.09) rotate(-39.69)"> </text><text class="cls-1" transform="translate(84.13 54.61) rotate(-38.07)"> </text><text class="cls-1" transform="matrix(0.8, -0.59, 0.59, 0.8, 87.19, 52.21)"> </text><text class="cls-1" transform="translate(90.31 49.9) rotate(-34.81)"> </text><text class="cls-1" transform="translate(93.5 47.68) rotate(-33.17)"> </text><text class="cls-1" transform="translate(96.76 45.55) rotate(-31.53)"> </text><text class="cls-1" transform="matrix(0.87, -0.5, 0.5, 0.87, 100.06, 43.52)"> </text><text class="cls-1" transform="translate(103.44 41.57) rotate(-28.25)"> </text><text class="cls-2" transform="translate(106.8 39.74) rotate(-26.14)"> </text><text class="cls-2" transform="matrix(0.93, -0.36, 0.36, 0.93, 112.06, 36.88)">C</text><text class="cls-2" transform="translate(127.64 30.69) rotate(-13.71)">H</text><text class="cls-2" transform="matrix(0.99, -0.12, 0.12, 0.99, 146.07, 26.31)">E</text><text class="cls-2" transform="translate(160.17 24.64) rotate(-0.93)">C</text><text class="cls-2" transform="translate(177.01 24.46) rotate(6.51)">K</text><text class="cls-2" transform="matrix(0.98, 0.19, -0.19, 0.98, 192.75, 26.44)"> </text><text class="cls-2" transform="translate(198.77 27.62) rotate(13.71)"> </text><text class="cls-2" transform="matrix(0.96, 0.28, -0.28, 0.96, 204.74, 29.07)"> </text><text class="cls-2" transform="matrix(0.95, 0.32, -0.32, 0.95, 210.6, 30.78)"> </text><text class="cls-2" transform="matrix(0.93, 0.37, -0.37, 0.93, 216.41, 32.77)"> </text><text class="cls-2" transform="translate(222.12 35.01) rotate(24.12)"> </text><text class="cls-2" transform="translate(227.72 37.52) rotate(26.72)"> </text><text class="cls-2" transform="translate(233.22 40.28) rotate(29.31)"> </text><text class="cls-2" transform="translate(238.56 43.27) rotate(31.9)"> </text><text class="cls-2" transform="translate(243.75 46.21) rotate(36.72)">C</text><text class="cls-2" transform="translate(257.27 56.16) rotate(44.19)">H</text><text class="cls-2" transform="matrix(0.63, 0.78, -0.78, 0.63, 270.79, 69.45)">E</text><text class="cls-2" transform="translate(279.8 80.45) rotate(57.64)">C</text><text class="cls-2" transform="translate(288.81 94.67) rotate(64.49)">K</text><text class="cls-2" transform="translate(295.47 109.04) rotate(69.11)"> </text><text class="cls-2" transform="translate(297.66 114.78) rotate(71.71)"> </text><text class="cls-2" transform="translate(299.59 120.59) rotate(74.31)"> </text><text class="cls-2" transform="translate(301.26 126.51) rotate(76.92)"> </text><text class="cls-2" transform="translate(302.64 132.46) rotate(79.51)"> </text><text class="cls-2" transform="translate(303.77 138.49) rotate(82.1)"> </text><text class="cls-2" transform="matrix(0.09, 1, -1, 0.09, 304.62, 144.58)"> </text><text class="cls-2" transform="matrix(0.05, 1, -1, 0.05, 305.19, 150.71)"> </text><text class="cls-2" transform="translate(305.45 156.77) rotate(89.07)"> </text><text class="cls-2" transform="matrix(-0.08, 1, -1, -0.08, 305.76, 162.78)">C</text><text class="cls-2" transform="matrix(-0.21, 0.98, -0.98, -0.21, 304.54, 179.51)">H</text><text class="cls-2" transform="translate(300.46 198.03) rotate(109.09)">E</text><text class="cls-2" transform="translate(295.91 211.5) rotate(115.67)">C</text><text class="cls-2" transform="translate(288.63 226.67) rotate(122.52)">K</text><text class="cls-2" transform="matrix(-0.6, 0.8, -0.8, -0.6, 279.95, 239.93)"> </text><text class="cls-2" transform="matrix(-0.64, 0.77, -0.77, -0.64, 276.25, 244.84)"> </text><text class="cls-2" transform="matrix(-0.67, 0.74, -0.74, -0.67, 272.34, 249.55)"> </text><text class="cls-2" transform="matrix(-0.7, 0.71, -0.71, -0.7, 268.21, 254.1)"> </text><text class="cls-2" transform="translate(263.89 258.47) rotate(137.39)"> </text><text class="cls-2" transform="matrix(-0.77, 0.64, -0.64, -0.77, 259.38, 262.61)"> </text><text class="cls-2" transform="translate(254.7 266.56) rotate(142.52)"> </text><text class="cls-2" transform="translate(249.83 270.3) rotate(145.1)"> </text><text class="cls-2" transform="translate(244.8 273.81) rotate(147.68)"> </text><text class="cls-2" transform="translate(239.89 277.22) rotate(152.52)">C</text><text class="cls-2" transform="translate(225.06 285.06) rotate(160.07)">H</text><text class="cls-2" transform="translate(207.2 291.42) rotate(167.09)">E</text><text class="cls-2" transform="translate(193.39 294.69) rotate(173.64)">C</text><text class="cls-2" transform="translate(176.64 296.63) rotate(-179.07)">K</text><text class="cls-2" transform="translate(160.8 296.26) rotate(-175.06)"> </text><text class="cls-2" transform="translate(154.67 295.74) rotate(-172.47)"> </text><text class="cls-2" transform="matrix(-0.98, -0.18, 0.18, -0.98, 148.58, 294.94)"> </text><text class="cls-2" transform="translate(142.56 293.87) rotate(-167.29)"> </text><text class="cls-2" transform="matrix(-0.96, -0.26, 0.26, -0.96, 136.57, 292.53)"> </text><text class="cls-2" transform="matrix(-0.95, -0.31, 0.31, -0.95, 130.64, 290.91)"> </text><text class="cls-2" transform="translate(124.81 289.03) rotate(-159.48)"> </text><text class="cls-2" transform="matrix(-0.92, -0.39, 0.39, -0.92, 119.06, 286.88)"> </text><text class="cls-2" transform="translate(113.43 284.48) rotate(-154.28)"> </text><text class="cls-2" transform="matrix(-0.86, -0.51, 0.51, -0.86, 107.94, 282.12)">C</text><text class="cls-2" transform="matrix(-0.79, -0.62, 0.62, -0.79, 93.44, 273.68)">H</text><text class="cls-2" transform="translate(78.57 261.9) rotate(-135.01)">E</text><text class="cls-2" transform="translate(68.45 251.93) rotate(-128.52)">C</text><text class="cls-2" transform="translate(57.97 238.77) rotate(-121.69)">K</text><text class="cls-2" transform="matrix(-0.46, -0.89, 0.89, -0.46, 49.79, 225.18)"> </text><text class="cls-2" transform="matrix(-0.41, -0.91, 0.91, -0.41, 46.99, 219.72)"> </text><text class="cls-2" transform="matrix(-0.37, -0.93, 0.93, -0.37, 44.45, 214.14)"> </text><text class="cls-2" transform="matrix(-0.33, -0.94, 0.94, -0.33, 42.15, 208.45)"> </text><text class="cls-2" transform="translate(40.12 202.66) rotate(-106.69)"> </text><text class="cls-2" transform="translate(38.35 196.78) rotate(-104.08)"> </text><text class="cls-2" transform="matrix(-0.2, -0.98, 0.98, -0.2, 36.86, 190.84)"> </text><text class="cls-2" transform="translate(35.63 184.83) rotate(-98.89)"> </text><text class="cls-2" transform="translate(34.68 178.77) rotate(-96.31)"> </text><text class="cls-2" transform="translate(33.78 172.87) rotate(-91.52)">C</text><text class="cls-2" transform="translate(33.22 156.11) rotate(-84.11)">H</text><text class="cls-2" transform="translate(35.28 137.24) rotate(-77.11)">E</text><text class="cls-2" transform="matrix(0.33, -0.94, 0.94, 0.33, 38.34, 123.36)">C</text><text class="cls-2" transform="matrix(0.44, -0.9, 0.9, 0.44, 43.94, 107.53)">K</text><text class="cls-2" transform="matrix(0.51, -0.86, 0.86, 0.51, 51.14, 93.39)"> </text><text class="cls-2" transform="translate(54.29 88.13) rotate(-56.47)"> </text><text class="cls-2" transform="translate(57.67 83.01) rotate(-53.9)"> </text><text class="cls-2" transform="translate(61.3 78.04) rotate(-51.31)"> </text><text class="cls-2" transform="translate(65.12 73.25) rotate(-48.75)"> </text><text class="cls-2" transform="translate(69.17 68.63) rotate(-46.17)"> </text><text class="cls-2" transform="translate(73.4 64.21) rotate(-43.61)"> </text><text class="cls-2" transform="translate(77.85 59.97) rotate(-41.04)"> </text><text class="cls-2" transform="translate(82.48 55.93) rotate(-38.46)"> </text></svg>