<svg id="Layer_1" data-name="Layer 1" xmlns="http://www.w3.org/2000/svg" viewBox="0 0 82.98 98.7"><defs><style>.cls-1{fill:#eed492;opacity:0.73;isolation:isolate;}.cls-2{fill:#8e6c64;}</style></defs><path id="egg" class="cls-1" d="M75.65,49.84c20,32.33-22.63,46.32-41.1,41.74C10.89,85.71,4,71.42,4.07,46.64S14.34,7.69,39.12,7.75,62.61,28.77,75.65,49.84Z"/><path class="cls-2" d="M74.77,13.05H13.22A1.24,1.24,0,0,0,12,14.28v71.4a1.24,1.24,0,0,0,1.24,1.23H74.77A1.23,1.23,0,0,0,76,85.68V14.28A1.23,1.23,0,0,0,74.77,13.05Zm-1.23,71.4H14.45V15.51H73.54Z"/><path class="cls-2" d="M44,53.67a1.21,1.21,0,0,0,.63,1.07,1.17,1.17,0,0,0,.6.16,1.19,1.19,0,0,0,.64-.18L52,51a1.24,1.24,0,0,0,0-2.11l-6.16-3.69a1.23,1.23,0,0,0-1.23,0A1.26,1.26,0,0,0,44,46.3v2.46H31.69v2.46H44Zm2.46-5.22L49,50l-2.54,1.51Z"/><path class="cls-2" d="M44,29.05a1.22,1.22,0,0,0,.63,1.07,1.28,1.28,0,0,0,.6.16,1.19,1.19,0,0,0,.64-.18L52,26.4a1.22,1.22,0,0,0,.41-1.69A1.15,1.15,0,0,0,52,24.3l-6.16-3.69a1.23,1.23,0,0,0-1.23,0A1.25,1.25,0,0,0,44,21.68v2.46H31.69V26.6H44Zm2.46-5.22L49,25.36l-2.54,1.51Z"/><path class="cls-2" d="M44,77.06a1.21,1.21,0,0,0,.63,1.07,1.17,1.17,0,0,0,.6.16,1.19,1.19,0,0,0,.64-.18L52,74.42a1.24,1.24,0,0,0,0-2.11l-6.16-3.69a1.23,1.23,0,0,0-1.23,0A1.26,1.26,0,0,0,44,69.69v2.46H31.69v2.46H44Zm2.46-5.22L49,73.37l-2.54,1.51Z"/><path class="cls-2" d="M23.06,31.51a6.16,6.16,0,1,0-6.15-6.15A6.15,6.15,0,0,0,23.06,31.51Zm0-9.84a3.69,3.69,0,1,1-3.69,3.69A3.7,3.7,0,0,1,23.06,21.67Z"/><path class="cls-2" d="M59.31,27.5l-.63,3.84a1.22,1.22,0,0,0,1.81,1.29l3.2-1.77,3.21,1.77a1.14,1.14,0,0,0,.59.16,1.23,1.23,0,0,0,1.25-1.21.9.9,0,0,0,0-.23l-.62-3.84,2.58-2.73a1.22,1.22,0,0,0,0-1.74,1.19,1.19,0,0,0-.66-.33l-3.59-.55L64.76,18.7a1.22,1.22,0,0,0-1.12-.7,1.24,1.24,0,0,0-1.11.7L61,22.16l-3.61.55a1.22,1.22,0,0,0-1,.83,1.24,1.24,0,0,0,.28,1.23Zm2.67-3a1.24,1.24,0,0,0,.92-.71l.79-1.67.84,1.67a1.22,1.22,0,0,0,.93.71l1.89.28-1.46,1.44a1.25,1.25,0,0,0-.33,1.06l.32,2-1.59-.89a1.23,1.23,0,0,0-1.23,0l-1.59.89.32-2a1.22,1.22,0,0,0-.33-1.06l-1.37-1.44Z"/><path class="cls-2" d="M59.31,52.12,58.68,56a1.22,1.22,0,0,0,.5,1.23,1.24,1.24,0,0,0,1.31,0l3.2-1.77,3.21,1.77a1.14,1.14,0,0,0,.59.16,1.23,1.23,0,0,0,1.25-1.21.75.75,0,0,0,0-.21l-.62-3.85,2.58-2.68a1.22,1.22,0,0,0,0-1.74,1.26,1.26,0,0,0-.66-.33l-3.59-.55-1.63-3.46a1.22,1.22,0,0,0-1.12-.7,1.24,1.24,0,0,0-1.11.7L61,46.78l-3.61.55a1.23,1.23,0,0,0-.69,2.06Zm2.67-3a1.25,1.25,0,0,0,.92-.7l.79-1.68.84,1.68a1.23,1.23,0,0,0,.93.7l1.89.28-1.46,1.44a1.25,1.25,0,0,0-.33,1.06l.32,1.94L64.29,53a1.23,1.23,0,0,0-1.23,0l-1.59.87.32-1.94a1.22,1.22,0,0,0-.33-1.06L60.09,49.4Z"/><path class="cls-2" d="M59.31,76.74l-.63,3.84a1.22,1.22,0,0,0,.5,1.23,1.24,1.24,0,0,0,1.31,0L63.69,80l3.21,1.77a1.05,1.05,0,0,0,.59.16,1.23,1.23,0,0,0,1.25-1.21.75.75,0,0,0,0-.21l-.62-3.84L70.68,74a1.22,1.22,0,0,0,0-1.74A1.26,1.26,0,0,0,70,72l-3.59-.55-1.63-3.46a1.24,1.24,0,0,0-2.23,0L61,71.4,57.35,72A1.23,1.23,0,0,0,56.66,74Zm2.67-3a1.25,1.25,0,0,0,.92-.7l.79-1.68L64.53,73a1.23,1.23,0,0,0,.93.7l1.89.28-1.46,1.44a1.26,1.26,0,0,0-.33,1.06l.32,2-1.59-.88a1.23,1.23,0,0,0-1.23,0l-1.59.88.32-2a1.23,1.23,0,0,0-.33-1.06L60.09,74Z"/><path class="cls-2" d="M18.14,56.13H28a1.23,1.23,0,0,0,1.23-1.23V45.06A1.24,1.24,0,0,0,28,43.82H18.14a1.24,1.24,0,0,0-1.23,1.24V54.9A1.23,1.23,0,0,0,18.14,56.13Zm1.23-9.84h7.39v7.38H19.37Z"/><path class="cls-2" d="M24.17,69.15a1.22,1.22,0,0,0-2.2,0L17,79a1.23,1.23,0,0,0,.59,1.64,1.46,1.46,0,0,0,.51.12H28a1.24,1.24,0,0,0,1.24-1.23A1.39,1.39,0,0,0,29.1,79Zm-4,9.14,2.93-5.87,3,5.87Z"/></svg>