<svg width="35" height="36" viewBox="0 0 35 36" fill="none" xmlns="http://www.w3.org/2000/svg">
<path d="M26.6826 6.9223C26.2723 6.9223 25.8712 7.04396 25.5301 7.27189C25.189 7.49983 24.9231 7.8238 24.7661 8.20285C24.6091 8.58189 24.568 8.99898 24.648 9.40137C24.7281 9.80376 24.9256 10.1734 25.2157 10.4635C25.5058 10.7536 25.8755 10.9512 26.2779 11.0312C26.6803 11.1112 27.0973 11.0702 27.4764 10.9132C27.8554 10.7562 28.1794 10.4903 28.4073 10.1491C28.6353 9.80801 28.7569 9.40695 28.7569 8.99668C28.7569 8.44652 28.5384 7.91889 28.1494 7.52987C27.7603 7.14085 27.2327 6.9223 26.6826 6.9223ZM34.6343 11.1056C34.6007 9.67137 34.3321 8.25232 33.8392 6.90501C33.3996 5.75223 32.7155 4.70837 31.8339 3.8453C30.9779 2.95923 29.9317 2.27944 28.7742 1.85735C27.4305 1.3494 26.0098 1.07463 24.5736 1.04488C22.7412 0.941162 22.1535 0.941162 17.4516 0.941162C12.7496 0.941162 12.1619 0.941162 10.3295 1.04488C8.89326 1.07463 7.47264 1.3494 6.12889 1.85735C4.97359 2.28372 3.9282 2.96292 3.06917 3.8453C2.18311 4.70129 1.50332 5.74757 1.08122 6.90501C0.573279 8.24876 0.298508 9.66939 0.268758 11.1056C0.165039 12.938 0.165039 13.5257 0.165039 18.2277C0.165039 22.9296 0.165039 23.5173 0.268758 25.3497C0.298508 26.786 0.573279 28.2066 1.08122 29.5503C1.50332 30.7078 2.18311 31.7541 3.06917 32.6101C3.9282 33.4924 4.97359 34.1716 6.12889 34.598C7.47264 35.1059 8.89326 35.3807 10.3295 35.4105C12.1619 35.5142 12.7496 35.5142 17.4516 35.5142C22.1535 35.5142 22.7412 35.5142 24.5736 35.4105C26.0098 35.3807 27.4305 35.1059 28.7742 34.598C29.9317 34.1759 30.9779 33.4961 31.8339 32.6101C32.7194 31.7502 33.4041 30.7054 33.8392 29.5503C34.3321 28.203 34.6007 26.784 34.6343 25.3497C34.6343 23.5173 34.7381 22.9296 34.7381 18.2277C34.7381 13.5257 34.7381 12.938 34.6343 11.1056ZM31.5228 25.1423C31.5102 26.2396 31.3115 27.3268 30.935 28.3576C30.659 29.1099 30.2157 29.7896 29.6385 30.3455C29.0779 30.9169 28.3995 31.3593 27.6506 31.642C26.6198 32.0184 25.5326 32.2172 24.4353 32.2298C22.7067 32.3162 22.0671 32.3335 17.5207 32.3335C12.9743 32.3335 12.3347 32.3335 10.6061 32.2298C9.46672 32.2511 8.33222 32.0756 7.25251 31.7112C6.53647 31.414 5.88922 30.9727 5.35099 30.4147C4.77723 29.8593 4.33946 29.179 4.07179 28.4267C3.64975 27.3811 3.41567 26.2693 3.38033 25.1423C3.38033 23.4136 3.27661 22.774 3.27661 18.2277C3.27661 13.6813 3.27661 13.0417 3.38033 11.3131C3.38808 10.1913 3.59287 9.07956 3.98536 8.02863C4.28968 7.29899 4.75679 6.64858 5.35099 6.12712C5.87618 5.53275 6.52524 5.0607 7.25251 4.74419C8.30621 4.36397 9.41678 4.16523 10.5369 4.15645C12.2656 4.15645 12.9052 4.05273 17.4516 4.05273C21.9979 4.05273 22.6375 4.05273 24.3662 4.15645C25.4635 4.16904 26.5507 4.36777 27.5814 4.74419C28.367 5.03574 29.0721 5.50972 29.6385 6.12712C30.205 6.65812 30.6477 7.30732 30.935 8.02863C31.3192 9.08127 31.5181 10.1925 31.5228 11.3131C31.6092 13.0417 31.6265 13.6813 31.6265 18.2277C31.6265 22.774 31.6092 23.4136 31.5228 25.1423ZM17.4516 9.35969C15.6984 9.36311 13.9855 9.88611 12.5295 10.8626C11.0734 11.8391 9.93949 13.2253 9.27094 14.846C8.6024 16.4667 8.42924 18.2492 8.77337 19.9683C9.11749 21.6874 9.96344 23.2659 11.2043 24.5044C12.4452 25.7429 14.0254 26.5857 15.7451 26.9265C17.4649 27.2673 19.247 27.0907 20.8664 26.419C22.4859 25.7473 23.8698 24.6106 24.8435 23.1527C25.8172 21.6947 26.3368 19.9809 26.3368 18.2277C26.3391 17.061 26.1107 15.9054 25.6648 14.8273C25.2189 13.7493 24.5642 12.77 23.7384 11.9458C22.9127 11.1217 21.9321 10.4689 20.8532 10.0251C19.7742 9.58127 18.6182 9.35513 17.4516 9.35969ZM17.4516 23.9841C16.313 23.9841 15.2001 23.6465 14.2535 23.014C13.3068 22.3814 12.569 21.4824 12.1333 20.4306C11.6976 19.3787 11.5836 18.2213 11.8058 17.1047C12.0279 15.988 12.5761 14.9623 13.3812 14.1573C14.1862 13.3522 15.2119 12.804 16.3285 12.5819C17.4452 12.3598 18.6026 12.4738 19.6544 12.9094C20.7063 13.3451 21.6053 14.0829 22.2378 15.0296C22.8704 15.9762 23.208 17.0892 23.208 18.2277C23.208 18.9836 23.0591 19.7322 22.7698 20.4306C22.4805 21.129 22.0565 21.7635 21.5219 22.2981C20.9874 22.8326 20.3528 23.2566 19.6544 23.5459C18.956 23.8352 18.2075 23.9841 17.4516 23.9841Z" fill="#331F00"/>
</svg>
