<svg width="36" height="29" viewBox="0 0 36 29" fill="none" xmlns="http://www.w3.org/2000/svg">
<path d="M30.2836 0.398682H6.08244C4.70704 0.398682 3.38797 0.945058 2.41542 1.91761C1.44286 2.89017 0.896484 4.20923 0.896484 5.58464V22.8711C0.896484 24.2465 1.44286 25.5656 2.41542 26.5382C3.38797 27.5107 4.70704 28.0571 6.08244 28.0571H30.2836C31.659 28.0571 32.978 27.5107 33.9506 26.5382C34.9231 25.5656 35.4695 24.2465 35.4695 22.8711V5.58464C35.4695 4.20923 34.9231 2.89017 33.9506 1.91761C32.978 0.945058 31.659 0.398682 30.2836 0.398682ZM29.1254 3.85598L18.183 12.0671L7.24063 3.85598H29.1254ZM30.2836 24.5998H6.08244C5.62397 24.5998 5.18428 24.4177 4.8601 24.0935C4.53591 23.7693 4.35379 23.3296 4.35379 22.8711V6.0168L17.1458 15.6108C17.445 15.8352 17.809 15.9565 18.183 15.9565C18.557 15.9565 18.921 15.8352 19.2202 15.6108L32.0122 6.0168V22.8711C32.0122 23.3296 31.8301 23.7693 31.5059 24.0935C31.1817 24.4177 30.742 24.5998 30.2836 24.5998Z" fill="#331F00"/>
</svg>
