<svg id="Layer_1" data-name="Layer 1" xmlns="http://www.w3.org/2000/svg" xmlns:xlink="http://www.w3.org/1999/xlink" viewBox="0 0 66 82.5"><defs><style>.cls-1{fill:url(#linear-gradient);}</style><linearGradient id="linear-gradient" x1="15.65" y1="74.97" x2="49.76" y2="8.01" gradientUnits="userSpaceOnUse"><stop offset="0" stop-color="#efcf48"/><stop offset="1" stop-color="#e96498"/></linearGradient></defs><path class="cls-1" d="M11,11.23a7.44,7.44,0,0,0-7.23,7.6V64.18A7.4,7.4,0,0,0,11,71.73H54.42a7.4,7.4,0,0,0,7.23-7.55V18.83a7.44,7.44,0,0,0-7.23-7.6ZM11,14H54.42A4.69,4.69,0,0,1,59,18.83V64.18a4.67,4.67,0,0,1-4.6,4.8H11a4.67,4.67,0,0,1-4.6-4.8V18.83A4.69,4.69,0,0,1,11,14Zm33.35,6.48c-4.61,1.24-9.21,2.56-13.8,3.85H16.24v4c-1.23.31-2.44.66-3.68,1,1.21,4.8,2.45,9.6,3.68,14.42V58.68h3.85l1,3.87c4.61-1.27,9.25-2.58,13.87-3.87H49.13v-4c1.24-.34,2.47-.68,3.71-1-1.21-4.83-2.47-9.67-3.71-14.5V24.31H45.31C45,23,44.66,21.73,44.33,20.46Zm-25.45,6.6H46.5V39.12l-6.11-7.33c-.79-.69-1.42-.44-2.07.12L31.49,42,27.2,37.24c-.77-.63-1.35-.39-2,.13l-6.32,8.79Z"/></svg>