<svg id="Layer_1" data-name="Layer 1" xmlns="http://www.w3.org/2000/svg" viewBox="0 0 82.98 98.7"><defs><style>.cls-1{fill:#eed492;opacity:0.73;}.cls-2{fill:#8e6c64;}</style></defs><path id="egg" class="cls-1" d="M75.65,49.84c20,32.33-22.63,46.32-41.1,41.74C10.89,85.71,4,71.42,4.07,46.64S14.34,7.69,39.12,7.75,62.61,28.77,75.65,49.84Z"/><path class="cls-2" d="M68,77.42l-1.72-6.53a12.64,12.64,0,0,0-10.66-9.42l-4.74-.69-.69-2.13A16.9,16.9,0,0,0,56.9,48.58c1.17-.62,3-2.2,3-6,0-2.82-.48-4.53-1.44-5.43a3.48,3.48,0,0,0-1.86-.89,52,52,0,0,0,.9-8.63c-.14-4.4-2.34-7.29-5.71-6.19A28.36,28.36,0,0,0,32,17.06c.14.48.62,1.85.76,2.61a11.06,11.06,0,0,0-5-1,11.43,11.43,0,0,0-.2,6.87,36.67,36.67,0,0,0-1,10.59,2.8,2.8,0,0,0-1.92.83c-1,1-1.51,2.68-1.51,5.49,0,3.85,1.92,5.44,3,6a16.72,16.72,0,0,0,6.72,10.13l-.76,2.13-4.74.69a12.56,12.56,0,0,0-10.59,9.42L15,77.35a3.61,3.61,0,0,0,.62,3.16,3.74,3.74,0,0,0,3,1.44H64.5a3.63,3.63,0,0,0,2.89-1.44A3.8,3.8,0,0,0,68,77.42ZM28.44,47.31a1.36,1.36,0,0,0-1-1c-.14-.06-1.79-.61-1.79-3.78,0-2.75.48-3.43.76-3.64a.24.24,0,0,1,.2-.07A15.26,15.26,0,0,0,27,41a.63.63,0,0,0,.61.48h1.1a.61.61,0,0,0,.62-.61v-.07c-.14-1.72-.27-6.4,2.27-10.32C35.07,32,41.87,35,51.5,30.5,54,33.8,53.9,39,53.77,40.75a.66.66,0,0,0,.61.68h.9A.59.59,0,0,0,55.9,41c.07-.48.2-1.24.41-2.13a.52.52,0,0,1,.41.14c.14.14.62.82.62,3.57,0,3.17-1.65,3.72-1.79,3.78a1.32,1.32,0,0,0-1,1.1c-1.24,6.67-6.67,11.48-13,11.48S29.74,54,28.44,47.31ZM41.5,61.58a15.22,15.22,0,0,0,6.32-1.45L49,63.71a12.66,12.66,0,0,1-15,0l1.17-3.58A15.24,15.24,0,0,0,41.5,61.58ZM65.15,78.93h0a1,1,0,0,1-.76.41H18.5a1,1,0,0,1-.83-.41.89.89,0,0,1-.2-.83l1.76-6.52a9.92,9.92,0,0,1,8.27-7.43l3.44-.48a1.37,1.37,0,0,0,.41,1.44,15.46,15.46,0,0,0,19.94,0,1.21,1.21,0,0,0,.41-1.44l3.44.48a10,10,0,0,1,8.43,7.43l1.72,6.53A.77.77,0,0,1,65.15,78.93Z"/><circle class="cls-2" cx="36.55" cy="40.5" r="2.34"/><circle class="cls-2" cx="46.31" cy="40.5" r="2.34"/><path class="cls-2" d="M36.76,49.37a1,1,0,0,0-.14,1.37,6.42,6.42,0,0,0,4.81,1.93,6.32,6.32,0,0,0,4.81-1.93A1,1,0,1,0,45,49.16a1,1,0,0,0-.28.35C43.49,51,39.3,51,38,49.51a.77.77,0,0,0-1-.29A.7.7,0,0,0,36.76,49.37Z"/></svg>