<svg id="Layer_1" data-name="Layer 1" xmlns="http://www.w3.org/2000/svg" xmlns:xlink="http://www.w3.org/1999/xlink" viewBox="0 0 66 82.5"><defs><style>.cls-1{fill:url(#linear-gradient);}.cls-2{fill:url(#linear-gradient-2);}.cls-3{fill:url(#linear-gradient-3);}.cls-4{fill:url(#linear-gradient-4);}.cls-5{fill:url(#linear-gradient-5);}.cls-6{fill:url(#linear-gradient-6);}.cls-7{fill:url(#linear-gradient-7);}.cls-8{fill:url(#linear-gradient-8);}.cls-9{fill:url(#linear-gradient-9);}.cls-10{fill:url(#linear-gradient-10);}.cls-11{fill:url(#linear-gradient-11);}.cls-12{fill:url(#linear-gradient-12);}.cls-13{fill:url(#linear-gradient-13);}.cls-14{fill:url(#linear-gradient-14);}.cls-15{fill:url(#linear-gradient-15);}</style><linearGradient id="linear-gradient" x1="14.84" y1="76.89" x2="51.16" y2="5.61" gradientUnits="userSpaceOnUse"><stop offset="0" stop-color="#efcf48"/><stop offset="1" stop-color="#e96498"/></linearGradient><linearGradient id="linear-gradient-2" x1="9.77" y1="51.82" x2="18.23" y2="35.23" xlink:href="#linear-gradient"/><linearGradient id="linear-gradient-3" x1="36.89" y1="45.33" x2="45.11" y2="29.17" xlink:href="#linear-gradient"/><linearGradient id="linear-gradient-4" x1="36.89" y1="49.33" x2="45.11" y2="33.17" xlink:href="#linear-gradient"/><linearGradient id="linear-gradient-5" x1="36.89" y1="53.33" x2="45.11" y2="37.17" xlink:href="#linear-gradient"/><linearGradient id="linear-gradient-6" x1="31.73" y1="54.7" x2="37.27" y2="43.8" xlink:href="#linear-gradient"/><linearGradient id="linear-gradient-7" x1="9.34" y1="62.9" x2="14.12" y2="53.52" xlink:href="#linear-gradient"/><linearGradient id="linear-gradient-8" x1="10.35" y1="68.96" x2="13.1" y2="63.54" xlink:href="#linear-gradient"/><linearGradient id="linear-gradient-9" x1="23.52" y1="62.9" x2="28.3" y2="53.52" xlink:href="#linear-gradient"/><linearGradient id="linear-gradient-10" x1="24.53" y1="68.96" x2="27.29" y2="63.54" xlink:href="#linear-gradient"/><linearGradient id="linear-gradient-11" x1="37.7" y1="62.91" x2="42.48" y2="53.53" xlink:href="#linear-gradient"/><linearGradient id="linear-gradient-12" x1="38.71" y1="68.96" x2="41.47" y2="63.54" xlink:href="#linear-gradient"/><linearGradient id="linear-gradient-13" x1="51.88" y1="62.91" x2="56.66" y2="53.53" xlink:href="#linear-gradient"/><linearGradient id="linear-gradient-14" x1="52.9" y1="68.96" x2="55.65" y2="63.54" xlink:href="#linear-gradient"/><linearGradient id="linear-gradient-15" x1="30.7" y1="28.22" x2="35.24" y2="19.29" xlink:href="#linear-gradient"/></defs><path class="cls-1" d="M62,11.25H4a1,1,0,0,0-1,1v58a1,1,0,0,0,1,1H62a1,1,0,0,0,1-1v-58A1,1,0,0,0,62,11.25Zm-1,58H5v-35H61Zm0-37H5v-19H61Z"/><path class="cls-2" d="M8,50.8H20a1,1,0,0,0,1-1V37.25a1,1,0,0,0-1-1H8a1,1,0,0,0-1,1V49.8A1,1,0,0,0,8,50.8ZM9,38.25H19v1.59L15.87,43l-2.32-1.54a1,1,0,0,0-1.06,0L9,43.48Zm0,7.57,4-2.39,2.48,1.65A1,1,0,0,0,16.74,45L19,42.66V48.8H9Z"/><rect class="cls-3" x="23" y="36.25" width="36" height="2"/><rect class="cls-4" x="23" y="40.25" width="36" height="2"/><rect class="cls-5" x="23" y="44.25" width="36" height="2"/><rect class="cls-6" x="23" y="48.25" width="23" height="2"/><path class="cls-7" d="M11.73,63.47a5.26,5.26,0,1,0-5.26-5.26v0A5.26,5.26,0,0,0,11.73,63.47Zm0-8.51a3.26,3.26,0,1,1-3.26,3.29A3.26,3.26,0,0,1,11.73,55Z"/><rect class="cls-8" x="7" y="65.25" width="9.45" height="2"/><path class="cls-9" d="M25.91,63.47a5.26,5.26,0,1,0-5.26-5.26v0A5.26,5.26,0,0,0,25.91,63.47Zm0-8.51a3.26,3.26,0,1,1-3.26,3.29A3.26,3.26,0,0,1,25.91,55Z"/><rect class="cls-10" x="21.18" y="65.25" width="9.46" height="2"/><path class="cls-11" d="M40.09,53a5.26,5.26,0,1,0,5.26,5.29A5.26,5.26,0,0,0,40.09,53Zm0,8.51a3.26,3.26,0,1,1,3.26-3.26v0A3.27,3.27,0,0,1,40.09,61.47Z"/><rect class="cls-12" x="35.36" y="65.25" width="9.46" height="2"/><path class="cls-13" d="M54.27,53a5.26,5.26,0,1,0,5.26,5.29A5.26,5.26,0,0,0,54.27,53Zm0,8.51a3.26,3.26,0,1,1,3.26-3.26v0A3.27,3.27,0,0,1,54.27,61.47Z"/><rect class="cls-14" x="49.55" y="65.25" width="9.45" height="2"/><path class="cls-15" d="M30.5,28.11a1,1,0,0,0,1,0l7-4a1,1,0,0,0,.5-.82,1,1,0,0,0-.42-.86l-7-5a1,1,0,0,0-1.39.23,1,1,0,0,0-.19.58v9A1,1,0,0,0,30.5,28.11ZM32,20.19l4.15,3L32,25.53Z"/></svg>