<svg width="68" height="81" viewBox="0 0 68 81" fill="none" xmlns="http://www.w3.org/2000/svg">
<path d="M57.7648 17.8235H10.2352C10.0179 17.8235 9.80947 17.9099 9.65579 18.0636C9.50211 18.2172 9.41577 18.4257 9.41577 18.643V66.1725C9.41577 66.3899 9.50211 66.5983 9.65579 66.752C9.80947 66.9057 10.0179 66.992 10.2352 66.992H57.7648C57.9821 66.992 58.1905 66.9057 58.3442 66.752C58.4979 66.5983 58.5842 66.3899 58.5842 66.1725V18.643C58.5842 18.4257 58.4979 18.2172 58.3442 18.0636C58.1905 17.9099 57.9821 17.8235 57.7648 17.8235ZM56.9453 65.3531H11.0547V36.6715H56.9453V65.3531ZM56.9453 35.0325H11.0547V19.4625H56.9453V35.0325Z" fill="#331F00"/>
<path d="M13.5131 50.2338H23.3468C23.5641 50.2338 23.7725 50.1474 23.9262 49.9938C24.0799 49.8401 24.1662 49.6316 24.1662 49.4143V39.1299C24.1662 38.9126 24.0799 38.7041 23.9262 38.5504C23.7725 38.3968 23.5641 38.3104 23.3468 38.3104H13.5131C13.2957 38.3104 13.0873 38.3968 12.9336 38.5504C12.7799 38.7041 12.6936 38.9126 12.6936 39.1299V49.4143C12.6936 49.6316 12.7799 49.8401 12.9336 49.9938C13.0873 50.1474 13.2957 50.2338 13.5131 50.2338ZM14.3326 39.9494H22.5273V41.2523L19.9623 43.8419L18.0284 42.6127C17.9038 42.5407 17.7625 42.5029 17.6186 42.5029C17.4748 42.5029 17.3335 42.5407 17.2089 42.6127L14.3489 44.2516L14.3326 39.9494ZM14.3326 46.1528L17.6105 44.1943L19.6673 45.5464C19.8207 45.6559 20.0072 45.7091 20.1953 45.6972C20.3833 45.6852 20.5615 45.6088 20.6999 45.4808L22.5519 43.5633V48.5948H14.3571L14.3326 46.1528Z" fill="#331F00"/>
<path d="M55.3063 38.3104H25.8052V39.9494H55.3063V38.3104Z" fill="#331F00"/>
<path d="M55.3063 41.5883H25.8052V43.2273H55.3063V41.5883Z" fill="#331F00"/>
<path d="M55.3063 44.8662H25.8052V46.5052H55.3063V44.8662Z" fill="#331F00"/>
<path d="M44.6531 48.1441H25.8052V49.7831H44.6531V48.1441Z" fill="#331F00"/>
<path d="M16.5698 60.6411C17.4226 60.6476 18.2582 60.4009 18.9708 59.9323C19.6834 59.4637 20.241 58.7943 20.573 58.0087C20.9049 57.2231 20.9964 56.3567 20.8358 55.5191C20.6752 54.6815 20.2697 53.9103 19.6707 53.3033C19.0716 52.6962 18.306 52.2805 17.4706 52.1087C16.6352 51.9369 15.7676 52.0169 14.9777 52.3384C14.1877 52.6598 13.5109 53.2084 13.0328 53.9147C12.5548 54.621 12.297 55.4533 12.2921 56.3061C12.2878 56.8718 12.3951 57.4327 12.6078 57.9569C12.8206 58.4811 13.1346 58.9581 13.5319 59.3608C13.9292 59.7634 14.4021 60.0838 14.9233 60.3035C15.4446 60.5232 16.0041 60.6379 16.5698 60.6411ZM16.5698 53.6674C17.0995 53.6609 17.6192 53.812 18.0628 54.1016C18.5064 54.3912 18.8539 54.8061 19.0612 55.2936C19.2684 55.7812 19.326 56.3193 19.2266 56.8397C19.1273 57.3601 18.8755 57.8391 18.5032 58.216C18.1309 58.5929 17.655 58.8506 17.1359 58.9564C16.6168 59.0622 16.078 59.0112 15.5879 58.81C15.0979 58.6088 14.6787 58.2664 14.3837 57.8264C14.0886 57.3864 13.9311 56.8687 13.9311 56.3389C13.9278 55.986 13.9945 55.636 14.1273 55.309C14.2601 54.982 14.4564 54.6846 14.7048 54.434C14.9532 54.1833 15.2488 53.9843 15.5745 53.8485C15.9002 53.7127 16.2497 53.6428 16.6026 53.6428L16.5698 53.6674Z" fill="#331F00"/>
<path d="M20.4376 62.0752H12.6936V63.7141H20.4376V62.0752Z" fill="#331F00"/>
<path d="M28.1898 60.6411C29.0424 60.6411 29.8757 60.3883 30.5846 59.9147C31.2934 59.4411 31.8459 58.7679 32.1722 57.9802C32.4984 57.1926 32.5838 56.3259 32.4175 55.4898C32.2511 54.6536 31.8406 53.8856 31.2378 53.2828C30.635 52.6799 29.8669 52.2694 29.0308 52.1031C28.1946 51.9368 27.3279 52.0221 26.5403 52.3484C25.7527 52.6746 25.0795 53.2271 24.6058 53.936C24.1322 54.6448 23.8794 55.4782 23.8794 56.3307C23.8783 56.8971 23.9891 57.4581 24.2053 57.9815C24.4216 58.505 24.739 58.9806 25.1395 59.381C25.54 59.7815 26.0156 60.099 26.539 60.3152C27.0625 60.5315 27.6235 60.6422 28.1898 60.6411ZM28.1898 53.6674C28.7172 53.6674 29.2327 53.8235 29.6715 54.116C30.1102 54.4085 30.4526 54.8242 30.6555 55.311C30.8584 55.7977 30.9128 56.3336 30.8117 56.8511C30.7105 57.3686 30.4585 57.8447 30.0874 58.2193C29.7162 58.5938 29.2425 58.8502 28.7259 58.956C28.2093 59.0619 27.673 59.0124 27.1844 58.814C26.6959 58.6156 26.277 58.277 25.9805 57.8409C25.684 57.4048 25.5232 56.8908 25.5184 56.3635C25.5151 56.0106 25.5818 55.6606 25.7146 55.3336C25.8474 55.0066 26.0437 54.7092 26.2921 54.4585C26.5405 54.2079 26.8361 54.0089 27.1618 53.8731C27.4875 53.7373 27.8369 53.6674 28.1898 53.6674Z" fill="#331F00"/>
<path d="M32.066 62.0752H24.3137V63.7141H32.066V62.0752Z" fill="#331F00"/>
<path d="M39.8101 52.0366C38.9587 52.0366 38.1263 52.2888 37.4179 52.7614C36.7096 53.2339 36.1572 53.9057 35.8302 54.6919C35.5032 55.4781 35.4165 56.3435 35.5808 57.179C35.7451 58.0144 36.1532 58.7825 36.7536 59.3863C37.354 59.9901 38.1197 60.4026 38.9542 60.5716C39.7887 60.7407 40.6546 60.6589 41.4427 60.3364C42.2307 60.0139 42.9056 59.4653 43.3822 58.7597C43.8588 58.054 44.1157 57.2231 44.1206 56.3716C44.1238 55.8035 44.0147 55.2404 43.7995 54.7146C43.5844 54.1887 43.2674 53.7107 42.8668 53.3078C42.4662 52.9049 41.9899 52.5852 41.4654 52.3671C40.9408 52.1489 40.3783 52.0366 39.8101 52.0366ZM39.8101 59.0104C39.2818 59.0104 38.7652 58.8537 38.3259 58.5601C37.8866 58.2666 37.5442 57.8493 37.342 57.3612C37.1398 56.873 37.0869 56.3359 37.19 55.8177C37.293 55.2995 37.5475 54.8235 37.9211 54.4498C38.2947 54.0762 38.7707 53.8218 39.2889 53.7187C39.8072 53.6156 40.3443 53.6685 40.8325 53.8707C41.3206 54.0729 41.7378 54.4153 42.0314 54.8547C42.3249 55.294 42.4816 55.8105 42.4816 56.3389C42.4752 57.0446 42.1914 57.7196 41.6915 58.2179C41.1917 58.7162 40.5159 58.9979 39.8101 59.0022V59.0104Z" fill="#331F00"/>
<path d="M43.6861 62.0752H35.9338V63.7141H43.6861V62.0752Z" fill="#331F00"/>
<path d="M51.4303 52.0367C50.5781 52.0334 49.7441 52.2829 49.0337 52.7534C48.3232 53.224 47.7682 53.8946 47.4387 54.6805C47.1092 55.4664 47.0201 56.3324 47.1826 57.1689C47.3451 58.0055 47.7519 58.7751 48.3516 59.3805C48.9513 59.9859 49.717 60.4 50.552 60.5704C51.3869 60.7408 52.2536 60.6599 53.0426 60.338C53.8316 60.016 54.5075 59.4673 54.9848 58.7614C55.4621 58.0554 55.7195 57.2238 55.7243 56.3717C55.7276 55.8036 55.6185 55.2404 55.4033 54.7146C55.1881 54.1888 54.8711 53.7107 54.4705 53.3078C54.07 52.905 53.5937 52.5853 53.0691 52.3671C52.5445 52.1489 51.982 52.0366 51.4139 52.0367H51.4303ZM51.4303 59.0104C50.9012 59.0136 50.3831 58.8597 49.9416 58.5681C49.5002 58.2766 49.1552 57.8605 48.9505 57.3726C48.7458 56.8848 48.6905 56.3471 48.7917 55.8278C48.893 55.3085 49.1461 54.831 49.5191 54.4557C49.892 54.0805 50.368 53.8244 50.8866 53.72C51.4053 53.6156 51.9433 53.6675 52.4324 53.8692C52.9215 54.0709 53.3397 54.4133 53.634 54.853C53.9283 55.2927 54.0854 55.8098 54.0854 56.3389C54.079 57.0419 53.7975 57.7143 53.3011 58.2122C52.8048 58.71 52.1332 58.9936 51.4303 59.0022V59.0104Z" fill="#331F00"/>
<path d="M55.3063 62.0752H47.5623V63.7141H55.3063V62.0752Z" fill="#331F00"/>
<path d="M31.9595 31.6399C32.0841 31.7118 32.2254 31.7497 32.3693 31.7497C32.5131 31.7497 32.6544 31.7118 32.779 31.6399L38.5153 28.362C38.6345 28.2934 38.7346 28.1959 38.8062 28.0784C38.8778 27.961 38.9187 27.8274 38.9251 27.69C38.9312 27.5532 38.9029 27.4169 38.8428 27.2938C38.7827 27.1707 38.6926 27.0646 38.5809 26.9853L32.8446 22.8879C32.6683 22.7627 32.4496 22.7122 32.2362 22.7475C32.0228 22.7828 31.8321 22.901 31.7055 23.0764C31.6053 23.2147 31.5509 23.3809 31.5498 23.5517V30.927C31.5492 31.0714 31.5868 31.2134 31.6588 31.3386C31.7307 31.4638 31.8345 31.5677 31.9595 31.6399ZM33.1888 25.1497L36.5896 27.6081L33.1806 29.5011L33.1888 25.1497Z" fill="#331F00"/>
</svg>
