<svg width="70" height="80" viewBox="0 0 70 80" fill="none" xmlns="http://www.w3.org/2000/svg">
<path fill-rule="evenodd" clip-rule="evenodd" d="M16.5471 15.0518H32.4648C33.593 15.0507 34.7102 15.27 35.7522 15.6971C36.7942 16.1241 37.7405 16.7505 38.5365 17.5401C40.998 19.9717 44.9611 23.8785 47.4308 26.3182C49.0406 27.9096 49.9464 30.0664 49.9497 32.3162V59.38C49.9497 60.1303 49.648 60.8498 49.111 61.3803C48.574 61.9108 47.8456 62.2088 47.0862 62.2088H16.5471C15.7877 62.2088 15.0593 61.9108 14.5223 61.3803C13.9853 60.8498 13.6836 60.1303 13.6836 59.38V17.8805C13.6836 17.1303 13.9853 16.4108 14.5223 15.8803C15.0593 15.3498 15.7877 15.0518 16.5471 15.0518ZM34.672 29.1794C34.672 29.4288 34.7723 29.6679 34.9508 29.8443C35.1293 30.0206 35.3713 30.1196 35.6238 30.1196H45.1744C45.9346 30.1218 46.6629 30.4216 47.1997 30.9534C47.7365 31.4852 48.0379 32.2055 48.0379 32.9565V59.38C48.0379 59.6294 47.9377 59.8685 47.7592 60.0449C47.5807 60.2212 47.3386 60.3203 47.0862 60.3203H16.5471C16.2947 60.3203 16.0526 60.2212 15.8741 60.0449C15.6956 59.8685 15.5954 59.6294 15.5954 59.38V17.8805C15.5943 17.7564 15.6181 17.6332 15.6654 17.5182C15.7128 17.4032 15.7827 17.2986 15.8712 17.2105C15.9597 17.1223 16.065 17.0523 16.181 17.0045C16.297 16.9568 16.4215 16.9322 16.5471 16.9322H31.8084C32.1845 16.9322 32.5569 17.0054 32.9043 17.1475C33.2517 17.2897 33.5674 17.4981 33.8333 17.7607C34.0992 18.0234 34.3101 18.3353 34.454 18.6785C34.5979 19.0217 34.672 19.3895 34.672 19.761V29.1794ZM36.313 18.0994C36.5061 18.6187 36.6061 19.1672 36.6084 19.7205V28.2554H45.1744C45.7346 28.256 46.2902 28.3548 46.8154 28.5472C46.5949 28.2298 46.3508 27.9291 46.0851 27.6475C43.6236 25.2159 39.6524 21.3091 37.1909 18.8694C36.9113 18.5944 36.6094 18.3423 36.2884 18.1156L36.313 18.0994Z" fill="#331F00"/>
<path fill-rule="evenodd" clip-rule="evenodd" d="M52.8132 20.7093V15.992C52.8132 15.7426 52.9135 15.5035 53.092 15.3271C53.2705 15.1508 53.5126 15.0518 53.765 15.0518H57.5721C57.8245 15.0518 58.0666 15.1508 58.2451 15.3271C58.4236 15.5035 58.5239 15.7426 58.5239 15.992V20.7093C58.7771 20.7093 59.02 20.8081 59.1998 20.9842C59.3796 21.1603 59.4817 21.3994 59.4839 21.6495V22.5979H62.3474C62.5971 22.5935 62.8385 22.6862 63.0196 22.856C63.2007 23.0258 63.307 23.2591 63.3156 23.5057V34.8532C63.3279 34.9845 63.3124 35.117 63.27 35.2421C63.2275 35.3672 63.1592 35.4821 63.0692 35.5796C62.9792 35.6771 62.8697 35.755 62.7475 35.8083C62.6253 35.8616 62.4933 35.8891 62.3597 35.8891C62.2262 35.8891 62.0941 35.8616 61.972 35.8083C61.8498 35.755 61.7402 35.6771 61.6503 35.5796C61.5603 35.4821 61.4919 35.3672 61.4495 35.2421C61.4071 35.117 61.3915 34.9845 61.4038 34.8532V24.4783H59.5003V55.6029C59.4952 55.7519 59.4589 55.8981 59.3936 56.0325L56.5301 61.7063C56.4493 61.8611 56.327 61.9909 56.1764 62.0816C56.0259 62.1722 55.853 62.2202 55.6768 62.2202C55.5005 62.2202 55.3276 62.1722 55.1771 62.0816C55.0265 61.9909 54.9042 61.8611 54.8234 61.7063L51.9599 56.0325C51.8823 55.9016 51.8373 55.7544 51.8286 55.6029V21.6495C51.8285 21.5233 51.8542 21.3983 51.9041 21.2821C51.9539 21.1658 52.027 21.0607 52.1189 20.973C52.2108 20.8852 52.3196 20.8166 52.4389 20.7714C52.5582 20.7261 52.6855 20.705 52.8132 20.7093ZM57.4737 55.6029H53.8799L55.6768 59.1693L57.4737 55.6029ZM57.5721 53.7225V22.5979H53.765V53.7225H57.5721ZM56.6285 20.7093V16.9322H54.725V20.7093H56.6285Z" fill="#331F00"/>
<path fill-rule="evenodd" clip-rule="evenodd" d="M24.1694 37.2849L29.2237 32.2433C29.4046 32.0686 29.6476 31.9707 29.9006 31.9707C30.1536 31.9707 30.3966 32.0686 30.5775 32.2433C30.755 32.4234 30.8542 32.6648 30.8542 32.9161C30.8542 33.1674 30.755 33.4087 30.5775 33.5888L24.834 39.2626C24.6541 39.4393 24.4108 39.5385 24.1571 39.5385C23.9034 39.5385 23.6601 39.4393 23.4802 39.2626L19.6649 35.4855C19.5647 35.4003 19.4835 35.2957 19.4261 35.1781C19.3688 35.0605 19.3367 34.9325 19.3317 34.8021C19.3268 34.6717 19.3491 34.5417 19.3974 34.4202C19.4457 34.2987 19.5188 34.1884 19.6122 34.0961C19.7056 34.0038 19.8173 33.9315 19.9403 33.8839C20.0633 33.8362 20.1949 33.8141 20.3269 33.819C20.459 33.8239 20.5885 33.8556 20.7076 33.9122C20.8266 33.9689 20.9325 34.0492 21.0187 34.1481L24.1694 37.2849Z" fill="#331F00"/>
<path fill-rule="evenodd" clip-rule="evenodd" d="M24.1696 48.6324L27.3121 45.4794C27.4927 45.3021 27.7373 45.2029 27.9919 45.2036C28.2466 45.2044 28.4905 45.305 28.6701 45.4835C28.8496 45.6619 28.95 45.9035 28.9492 46.155C28.9485 46.4066 28.8466 46.6476 28.6659 46.8249L25.5152 49.9293L28.6659 53.0255C28.8466 53.2029 28.9485 53.4438 28.9492 53.6954C28.95 53.947 28.8496 54.1885 28.6701 54.3669C28.4905 54.5454 28.2466 54.646 27.9919 54.6468C27.7373 54.6476 27.4927 54.5484 27.3121 54.371L24.1696 51.291L21.0271 54.3872C20.9377 54.4772 20.8311 54.5486 20.7135 54.5974C20.5958 54.6461 20.4695 54.6713 20.342 54.6713C20.2144 54.6713 20.0881 54.6461 19.9705 54.5974C19.8528 54.5486 19.7462 54.4772 19.6569 54.3872C19.4745 54.2064 19.3721 53.9616 19.3721 53.7064C19.3721 53.4511 19.4745 53.2063 19.6569 53.0255L22.8076 49.9293L19.6569 46.8249C19.4762 46.6476 19.3743 46.4066 19.3736 46.155C19.3728 45.9035 19.4732 45.6619 19.6528 45.4835C19.8323 45.305 20.0762 45.2044 20.3309 45.2036C20.5855 45.2029 20.8301 45.3021 21.0107 45.4794L24.1696 48.6324Z" fill="#331F00"/>
<path fill-rule="evenodd" clip-rule="evenodd" d="M31.8084 50.8936H43.2954C43.4284 50.9058 43.5625 50.8904 43.6891 50.8485C43.8157 50.8066 43.9321 50.739 44.0308 50.6502C44.1295 50.5613 44.2083 50.4531 44.2622 50.3324C44.3162 50.2117 44.3441 50.0812 44.3441 49.9493C44.3441 49.8174 44.3162 49.6869 44.2622 49.5662C44.2083 49.4456 44.1295 49.3373 44.0308 49.2485C43.9321 49.1596 43.8157 49.092 43.6891 49.0501C43.5625 49.0082 43.4284 48.9928 43.2954 49.005H31.8084C31.6754 48.9928 31.5414 49.0082 31.4147 49.0501C31.2881 49.092 31.1717 49.1596 31.073 49.2485C30.9744 49.3373 30.8955 49.4456 30.8416 49.5662C30.7876 49.6869 30.7598 49.8174 30.7598 49.9493C30.7598 50.0812 30.7876 50.2117 30.8416 50.3324C30.8955 50.4531 30.9744 50.5613 31.073 50.6502C31.1717 50.739 31.2881 50.8066 31.4147 50.8485C31.5414 50.8904 31.6754 50.9058 31.8084 50.8936Z" fill="#331F00"/>
<path fill-rule="evenodd" clip-rule="evenodd" d="M31.8082 37.6817H43.2952C43.5477 37.6817 43.7897 37.5827 43.9682 37.4063C44.1467 37.23 44.247 36.9909 44.247 36.7415C44.247 36.4921 44.1467 36.253 43.9682 36.0767C43.7897 35.9003 43.5477 35.8013 43.2952 35.8013H31.8082C31.5558 35.8013 31.3137 35.9003 31.1352 36.0767C30.9567 36.253 30.8564 36.4921 30.8564 36.7415C30.8564 36.9909 30.9567 37.23 31.1352 37.4063C31.3137 37.5827 31.5558 37.6817 31.8082 37.6817Z" fill="#331F00"/>
</svg>
