<svg id="Layer_1" data-name="Layer 1" xmlns="http://www.w3.org/2000/svg" viewBox="0 0 82.98 98.7"><defs><style>.cls-1{fill:#eed492;opacity:0.73;}.cls-2{fill:#8e6c64;fill-rule:evenodd;}</style></defs><path id="egg" class="cls-1" d="M75.65,49.84c20,32.33-22.63,46.32-41.1,41.74C10.89,85.71,4,71.42,4.07,46.64S14.34,7.69,39.12,7.75,62.61,28.77,75.65,49.84Z"/><path class="cls-2" d="M19,18.57H38.4a10.43,10.43,0,0,1,7.4,3.07c3,3,7.83,7.82,10.84,10.83a10.49,10.49,0,0,1,3.07,7.4V73.26a3.49,3.49,0,0,1-3.49,3.49H19a3.49,3.49,0,0,1-3.49-3.49V22.06A3.49,3.49,0,0,1,19,18.57ZM41.09,36a1.16,1.16,0,0,0,1.16,1.16H53.89a3.5,3.5,0,0,1,3.49,3.5V73.26a1.16,1.16,0,0,1-1.16,1.16H19a1.16,1.16,0,0,1-1.16-1.16V22.06A1.16,1.16,0,0,1,19,20.89H37.6a3.49,3.49,0,0,1,3.49,3.49Zm2-13.67a5.87,5.87,0,0,1,.36,2V34.86H53.89a5.77,5.77,0,0,1,2,.36A9.58,9.58,0,0,0,55,34.11c-3-3-7.84-7.82-10.84-10.83A8.87,8.87,0,0,0,43.06,22.35Z"/><path class="cls-2" d="M63.2,25.55V19.73a1.16,1.16,0,0,1,1.16-1.16H69a1.16,1.16,0,0,1,1.16,1.16v5.82a1.17,1.17,0,0,1,1.17,1.16v1.17h3.49A1.16,1.16,0,0,1,76,29V43a1.17,1.17,0,1,1-2.33,0V30.2H71.35V68.6a1.33,1.33,0,0,1-.13.53l-3.49,7a1.17,1.17,0,0,1-2.08,0l-3.49-7A1.18,1.18,0,0,1,62,68.6V26.71A1.16,1.16,0,0,1,63.2,25.55ZM68.88,68.6H64.5L66.69,73ZM69,66.28V27.88H64.36v38.4ZM67.85,25.55V20.89H65.53v4.66Z"/><path class="cls-2" d="M28.29,46l6.16-6.22a1.18,1.18,0,0,1,1.65,0,1.19,1.19,0,0,1,0,1.66l-7,7a1.17,1.17,0,0,1-1.65,0h0l-4.65-4.66a1.17,1.17,0,1,1,1.65-1.65h0Z"/><path class="cls-2" d="M28.29,60l3.83-3.89a1.17,1.17,0,0,1,1.65,1.66h0l-3.84,3.83,3.84,3.82a1.17,1.17,0,0,1-1.65,1.66l-3.83-3.8L24.46,67.1a1.17,1.17,0,0,1-1.67,0,1.19,1.19,0,0,1,0-1.68h0l3.84-3.82-3.84-3.83a1.17,1.17,0,1,1,1.65-1.66Z"/><path class="cls-2" d="M37.6,62.79h14a1.17,1.17,0,1,0,0-2.33h-14a1.17,1.17,0,1,0,0,2.33Z"/><path class="cls-2" d="M37.6,46.49h14a1.16,1.16,0,1,0,0-2.32h-14a1.16,1.16,0,1,0,0,2.32Z"/></svg>