<svg id="Layer_1" data-name="Layer 1" xmlns="http://www.w3.org/2000/svg" xmlns:xlink="http://www.w3.org/1999/xlink" viewBox="0 0 66 82.5"><defs><style>.cls-1,.cls-2,.cls-3,.cls-4,.cls-5,.cls-6{fill-rule:evenodd;}.cls-1{fill:url(#linear-gradient);}.cls-2{fill:url(#linear-gradient-2);}.cls-3{fill:url(#linear-gradient-3);}.cls-4{fill:url(#linear-gradient-4);}.cls-5{fill:url(#linear-gradient-5);}.cls-6{fill:url(#linear-gradient-6);}</style><linearGradient id="linear-gradient" x1="12.44" y1="67.36" x2="36.7" y2="19.75" gradientUnits="userSpaceOnUse"><stop offset="0" stop-color="#efcf48"/><stop offset="1" stop-color="#e96498"/></linearGradient><linearGradient id="linear-gradient-2" x1="40.04" y1="60.29" x2="60.78" y2="19.59" xlink:href="#linear-gradient"/><linearGradient id="linear-gradient-3" x1="16.32" y1="41.02" x2="20.89" y2="32.04" xlink:href="#linear-gradient"/><linearGradient id="linear-gradient-4" x1="15.1" y1="58.43" x2="20.9" y2="47.07" xlink:href="#linear-gradient"/><linearGradient id="linear-gradient-5" x1="30.31" y1="56.07" x2="33.69" y2="49.43" xlink:href="#linear-gradient"/><linearGradient id="linear-gradient-6" x1="30.31" y1="42.07" x2="33.69" y2="35.43" xlink:href="#linear-gradient"/></defs><path class="cls-1" d="M10,15.75H26.69a9,9,0,0,1,6.36,2.64c2.59,2.58,6.73,6.72,9.31,9.31A9,9,0,0,1,45,34.06V62.75a3,3,0,0,1-3,3H10a3,3,0,0,1-3-3v-44a3,3,0,0,1,3-3Zm19,15a1,1,0,0,0,1,1H40a3,3,0,0,1,3,3v28a1,1,0,0,1-1,1H10a1,1,0,0,1-1-1v-44a1,1,0,0,1,1-1H26a3,3,0,0,1,3,3ZM30.69,19A5,5,0,0,1,31,20.75v9h9a5.1,5.1,0,0,1,1.74.31,7.8,7.8,0,0,0-.79-.95c-2.59-2.58-6.73-6.72-9.31-9.31A7.8,7.8,0,0,0,30.69,19Z"/><path class="cls-2" d="M48,21.75v-5a1,1,0,0,1,1-1h4a1,1,0,0,1,1,1v5a1,1,0,0,1,1,1v1h3a1,1,0,0,1,1,1v12a1,1,0,0,1-2,0v-11H55v33a1,1,0,0,1-.11.45l-3,6a1,1,0,0,1-.89.55,1,1,0,0,1-.89-.55l-3-6a1,1,0,0,1-.11-.45v-36A1,1,0,0,1,48,21.75Zm4.88,37H49.12L51,62.51Zm.12-2v-33H49v33Zm-1-35v-4H50v4Z"/><path class="cls-3" d="M18,39.34,23.29,34a1,1,0,0,1,1.42,1.42l-6,6a1,1,0,0,1-1.42,0l-4-4A1,1,0,0,1,14.71,36Z"/><path class="cls-4" d="M18,51.34,21.29,48a1,1,0,0,1,1.42,1.42l-3.3,3.29L22.71,56a1,1,0,0,1-1.42,1.42L18,54.16l-3.29,3.3A1,1,0,0,1,13.29,56l3.3-3.29-3.3-3.29A1,1,0,0,1,14.71,48Z"/><path class="cls-5" d="M26,53.75H38a1,1,0,0,0,0-2H26a1,1,0,0,0,0,2Z"/><path class="cls-6" d="M26,39.75H38a1,1,0,0,0,0-2H26a1,1,0,0,0,0,2Z"/></svg>